<mxfile host="Electron" agent="Mozilla/5.0 (Macintosh; Intel Mac OS X 10_15_7) AppleWebKit/537.36 (KHTML, like Gecko) draw.io/24.7.17 Chrome/128.0.6613.36 Electron/32.0.1 Safari/537.36" version="24.7.17">
  <diagram name="페이지-1" id="pu6b5IcBv4bmESNnNFwT">
    <mxGraphModel dx="1979" dy="674" grid="1" gridSize="10" guides="1" tooltips="1" connect="1" arrows="1" fold="1" page="1" pageScale="1" pageWidth="827" pageHeight="1169" math="0" shadow="0">
      <root>
        <mxCell id="0" />
        <mxCell id="1" parent="0" />
        <mxCell id="eydfWjlNTwk2cM7HVW1J-69" value="" style="rounded=0;whiteSpace=wrap;html=1;" vertex="1" parent="1">
          <mxGeometry x="-80" y="200" width="850" height="470" as="geometry" />
        </mxCell>
        <mxCell id="eydfWjlNTwk2cM7HVW1J-38" value="" style="rounded=0;whiteSpace=wrap;html=1;" vertex="1" parent="1">
          <mxGeometry x="-60" y="230" width="810" height="400" as="geometry" />
        </mxCell>
        <mxCell id="eydfWjlNTwk2cM7HVW1J-56" value="" style="shape=image;verticalLabelPosition=bottom;labelBackgroundColor=default;verticalAlign=top;aspect=fixed;imageAspect=0;image=data:image/png,iVBORw0KGgoAAAANSUhEUgAAAwAAAAEtCAYAAAC/LAdPAAABX2lDQ1BJQ0MgUHJvZmlsZQAAKJFtkL1LQnEUhh/LEEqoIaKhwCGEwEIsyDUdIpASU6iG4Ho1C/z4cVWiraGmFqGWmsIi2oNaGvoDgoKgISJahPY+lpLbuVmp1YHD+/ByzuHwQotTUyptBzLZghGZCLhm5+Zdjkec9NOBnUFNz6vxcDgkI3xrc73eYLP0esi6dZFaOFSb3ufK7kGx4n4+/jvfVO2JZF4XfZf26coogM0rHF4pKIvXhLsNeUp42+JUjY8sjtf47HMmGgkKXwl36UtaQvhB2BNv8FMNnEkX9a8frO+dyWxsRrRHuo8YIaJEmGYKFyP4GMMvGf2/M/q5EySHYhWDZVIsUZDNcXEUaZLCk2TRGcYj7MMrPWpl/TvDupcrg/8FWkt1L74DpxvQe1v3Bvagcx1OLpVmaD/J2l7t+cURX42dAWi7N80nNzi2oFoyzbeyaVb35f4dnGc/AHsbZkUWJUkjAAAAYmVYSWZNTQAqAAAACAACARIAAwAAAAEAAQAAh2kABAAAAAEAAAAmAAAAAAADkoYABwAAABIAAABQoAIABAAAAAEAAAMAoAMABAAAAAEAAAEtAAAAAEFTQ0lJAAAAU2NyZWVuc2hvdHOEx+wAAAI9aVRYdFhNTDpjb20uYWRvYmUueG1wAAAAAAA8eDp4bXBtZXRhIHhtbG5zOng9ImFkb2JlOm5zOm1ldGEvIiB4OnhtcHRrPSJYTVAgQ29yZSA2LjAuMCI+CiAgIDxyZGY6UkRGIHhtbG5zOnJkZj0iaHR0cDovL3d3dy53My5vcmcvMTk5OS8wMi8yMi1yZGYtc3ludGF4LW5zIyI+CiAgICAgIDxyZGY6RGVzY3JpcHRpb24gcmRmOmFib3V0PSIiCiAgICAgICAgICAgIHhtbG5zOmV4aWY9Imh0dHA6Ly9ucy5hZG9iZS5jb20vZXhpZi8xLjAvIgogICAgICAgICAgICB4bWxuczp0aWZmPSJodHRwOi8vbnMuYWRvYmUuY29tL3RpZmYvMS4wLyI+CiAgICAgICAgIDxleGlmOlBpeGVsWURpbWVuc2lvbj4zMDE8L2V4aWY6UGl4ZWxZRGltZW5zaW9uPgogICAgICAgICA8ZXhpZjpVc2VyQ29tbWVudD5TY3JlZW5zaG90PC9leGlmOlVzZXJDb21tZW50PgogICAgICAgICA8ZXhpZjpQaXhlbFhEaW1lbnNpb24+NzY4PC9leGlmOlBpeGVsWERpbWVuc2lvbj4KICAgICAgICAgPHRpZmY6T3JpZW50YXRpb24+MTwvdGlmZjpPcmllbnRhdGlvbj4KICAgICAgPC9yZGY6RGVzY3JpcHRpb24+CiAgIDwvcmRmOlJERj4KPC94OnhtcG1ldGE+CrzZx2QAAEAASURBVHgB7J0J3D1T/cfPT6IiZCnK8pMt2bJLWVIhIfuaIkuyZF8qSxtJWaJosW+RvcVS9iVrlhAVsoQQiqiI+z/v4/+9zp07M3dm7j7P5/t6Pc+dOXPOmTOfOTPnu8+khicnEgJCQAgIASEgBISAEBACQmBCIDDFhLhKXaQQEAJCQAgIASEgBISAEBACAQEJAJoIQkAICAEhIASEgBAQAkJgAiEgAWAC3WxdqhAQAkJACAgBISAEhIAQkACgOSAEhIAQEAJCQAgIASEgBCYQAhIAJtDN1qUKASEgBISAEBACQkAICIEpkxBMmjQpWaR9ISAEhIAQEAJCQAgIASEgBMYMgaxkn20CANd19913j9nlabijhsDCCy+seTRqN2UMx6N5NIY3bQSHrHk0gjdFQ8pFQHM2Fx4dLIgA8yiL5AKUhYzKhYAQEAJCQAgIASEgBIRADRGQAFDDm6pLEgJCQAgIASEgBISAEBACWQhIAMhCRuVCQAgIASEgBISAEBACQqCGCEgAqOFN1SUJASEgBISAEBACQkAICIEsBCQAZCGjciEgBISAEBACQkAICAEhUEMEJADU8KbqkoSAEBACQkAICAEhIASEQBYCEgCykFG5EBACQkAICAEhIASEgBCoIQISAGp4U3VJQkAICAEhIASEgBAQAkIgCwEJAFnIqFwICAEhIASEgBAQAkJACNQQAQkANbypuiQhIASEgBAQAkJACAgBIZCFgASALGRULgSEgBAQAkJACAgBISAEaoiABIAa3lRdkhAQAkJACAgBISAEhIAQyEJAAkAWMioXAkJACAgBISAEhIAQEAI1REACQA1vqi5JCAgBISAEhIAQEAJCQAhkISABIAsZlQsBISAEhIAQEAJCQAgIgRoiIAGghjdVlyQEhIAQEAJCQAgIASEgBLIQkACQhYzKhYAQEAJCQAgIASEgBIRADRGYchyv6cQTT3S///3vw9AXWmght8022+RexmOPPeYajUZunbyDkyZNcu95z3vyqlQ+ds0117jzzz8/tH/HO97hDjjggNJ9/e1vf3OHHXZYs90+++zjZp555ua+NnqDQJ3m3RVXXOF+8YtfBGCmm24697Wvfa03IKmXVAQeeugh95///Cccm2222dwUU0zR8qzvtNNObp555kltO6qFp556qrvtttvC8Iq8h0f1OibauOL32KKLLuq22mqrnkDwxz/+sbnOTp48Ocz3+L2y6667urnmmqsn56KTeP7NP//87gtf+ELP+lZHryMA3wR/AQ/17LPPBr4CXuid73yngy8qS6+++qp7/vnnyzZr1n/729/uppyyP2zr17/+dffcc8+Fc6277rpuxRVXbJ43b+Pzn/+8u+WWW0KVj370o+473/lOavV+PXepJytY2B8kC548rsbk2mCDDZpF3/rWt9yyyy7b3I83br31Vnf11VeHopdeeilXAPjXv/7lVltttbh5pe0bb7zRTTvttG1tWdhhpqC3vOUtbrPNNmup87///S+8qEwAWX311d273/3uZp3777/f/eY3vwn7cXmzQoENJu3FF1/crMmElADQhCN3Y1znHS/R6667Lvfa4oNLLLGEm3XWWZtFf/7zn5vzjpe5qL8IbLvttu6JJ54IJ9l5553dOuus08Sfwo022mhkBADm1muvvRbGOs0007g3v/nNYTv5D+bf3l2d3sPJttrvDoFHHnnEwUyVoemnn97NOOOMLl4/X3755Z4IAKyz66+/fnM43//+9928887bnB8c2HzzzXsqAMTzjzVQAkAT/q43br/9dnfCCSe466+/3jFHkvTWt77VrbDCCu5zn/ucW3jhhZOHM/evvfZah7KjKh1yyCFuzTXXrNo8tx3r6eOPPx7qLLLIIoUFgP/+979NjF555ZXMc/Tjucs8WcEDIyMA8DJ76qmnmsM2bVmzYEQ3eAkdfvjhYXRoUpMCwL///e8W7TxavqqM/ohCMNbDGtd596c//cntvffehbH/xje+4dBqiLpHAEb+oIMOKtTRfPPN53bZZZdCddMqoXn78Y9/nHaoVBnMUSwA5jVGi8V7C9p///3dxhtvnFddx4aAAAJkGmOWNxQYJxioooSG3SzteW323HNPh6BYhVBElJnfiy22mPv0pz9d5VRqUwABmNm99tqrqdTMasL74de//nX4+9SnPlX4fWiKhax+uylnLf/mN7/ZVF506mv22Wd3KGaK0qOPPuruvPPOtuooEY2wlvzyl7+03ebv0ksv3dwepY2REQD6BQraqw984ANN02SV82DqytKCVemvShuYCF6WaZRcCFjss8YLQ/K9730vrRuV9RCBUZt3N998s4u1E3fffXcPr3ZidfXPf/7TXXXVVYUu+h//+EehelmVWFDOPffcrMOFy7GuFhUA+rlIFx6wKg4dAazeZmnPGwxa4KoCABrX2Hqddx6OVT1Pp351/HUEcB82jwbDBP5p7rnndmj9sfTAh9x777122F144YXh2H777dcsK7qx1FJLBc+JovVxn8wiBICzzz4763Bb+Qc/+MFSAgDv/G9/+9tt/cQFrKv77rtvXBS2O7VrazCggpERAGLtP9fOwtcLmnrqqd1pp50Wurrsssscfl4QPrjJRRw3nZVXXrkpLOCP/7GPfSzUH/Y/tI6YfYuQuRqk1U1zY0qrN1HK6jLv0O5PNdVULbcNxhEXNAh/f/P5b6mkHSEgBMYOAdapWKAvcgFoz8edcCsS9QcBmFd4JCPiOFAWpsUmoQnffffd3ZNPPhmqn3nmmW6HHXYILmbWvsgvCklc04rQDDPM4JZccskiVQvV6WU8SqETjmClkREA/vCHP7TAk9xvOVhxB61sbK5Bmo0Z4hdeeME988wzzd6ztOjNCokNfGeTgSPm+5+oWnqX4BeChLsl+hG9gUByniX336hZfavf846R7bHHHo4XZEyXXHKJQ1st6i0C733ve91ZZ53V7BSBmwBHI4LA5pxzzrDb7fO2wAILuB/+8IfWdcvveeedF0zwVrjGGmu4tdde23ZbfsU4tcAx9jvmdnr88cc3g8tx3Xrf+94Xru1Xv/qVIz4NItAXf+1uaPHFF2/6bqOc+8pXvtJNd8229Js1v6l0ww03uJNPPrlZn2BfUX8QwEocE4lF0ph/6iBMfvWrX22Ju8BixDuoDP30pz8tXB3X6Tz3LxRgRxxxRKYLELzYl770pabgzHu8DC2zzDJB6CnTxuoSU3DRRRfZ7sj8jowAkNTGEywCQ41ffR4Rfb3qqqs2q+Cbm+VvlewLhj8WAJLMUrJ+8yQ5G7GAkVZtxx13bImeLyog8KJPI0yovJCRxHE3IEL+Xe96l4Nx4FeUj0Bd5l3+VboQOMVia8Tzlbx2O6bffARYaMh6Y5TUYMGkZC2c1qboL++nD3/4w6nVjzzyyJZyBJGsui0Vc3Z4H8UuQGW1zDld61AfECBQ09YtEj+YAHDBBRcE5plTEpzbrQCA8smSchS1RBe5XNbYvDn785//vNkNzxnuKKL+IGDWYuu9E/+QTB5h1gBrP4zfj3/845mnxWoRv8/KvqPhqfgzevrpp4MiCEEbHox3J5hhWdhwww3HItZzJASANF9DXDMOPfTQENRhgKf94v9ukdscJxtFTPTNSxJCoIgJfzcy9xgl2+K3ZULAdttt5/BX60SxQEFdFtNkv0WZ/qxzYaXA1w2XjocffjirWpiMaASRmmeaaabMehP1QJ3mXad7yOIdBwEjLEoA6IRasePJhbPb57vIWX/wgx+4++67r6UqmTtINddNWkfepfEi2Utmr2Ww2ukJAqxfJgDE9y2ek/huZxG+3HGQOm4cMZOT1W4Q5QSkkoXGiHdY0s3Rjum3ewSS/M13v/tdR/KItHSfzLVkLGEV6wzvsTy//viquPect6xnhvVB0LIRfXQzz8HmZz/7WRtvZ/1jtULw7pWlzPrt9e/QBQA05lkZNdBiIFGRNq8o4dsfEwvab3/727iouW05rJsFiY04UHKttdZKHG3fRVhIngsrA8EmRmgx4pcYwsGLL75ohzv+YvEgSv/vf/97x7pI5D/5yU9CVDqZFgjkEb2OQJ3mXZF7yssqXkwffPDBIs1UpwACyZgbNEMEK8bm6l5qx1BoHHvssakjw2z/tre9rXLmHtISx5SnYIjraXs4CMQKrDgZRLzNfMgiFG2XX3558/B6663XFWPU7KgHG2j/TbihO1Joi/qHAK5iZMb561//Gk4C/4WASMYpfPWxAqF8xE2WwN+//OUvzcHA/H/oQx9q7hfdwCOiDJHMANejskSAcKzw+shHPtLmMlu0T9zvTjrppNzqPH+4N8Hrwa8lCdc2XPaMSHuPi9GgaagCAJNp6623bplIaK8uvfTSplb/Rz/6UTiOtj7NJMWko8640MEHH+xWWmml5nBZzM2fs1mYsYHWNsn88+AhuWOOY7KhNYEhuemmm5rWAfbBmWwLBEVPdJqI8+6uu+5y/Il6jwCpOmNiAeVjOb1k+umf5xirqOXep2yOOeZw5FwntzZp6iC0duS0JhtF2Q8YJtM+km6Wd0qn9waCA/61RizUvQzYs37124pArN2Pmf7YApAnALT21rs94o+6sTqT1x/tsBHKq5hhsnL7ReiOM8DATCnI09Ap9ov7MPEYW265ZVPByMfdOmWwgS+LP0Ra7GzValW1rqIIjZUZfCupChE3es455zSbMsfhWeHBUD6jVEb7b0ohhIAvfvGLbe9PntV4fbC0y82OB7QxNAEAaYyJZYsW1wtjTGQ5biukFrOvsmG6oT6ZDyyLT1F80Bog2XZLRRZSJgeLb0yxWTYur7JNSrZY8w9W4JRFmKlMUkXTg/Ugz98yq586lddx3nF/VllllbYvJCZdz+p0H0fpWu65556W4eCKg881pm1bsLrJasY7Em0ci0nsxghTdPTRRzuydbDA4crBgg1deeWVjqA+3L7I/17kYz0w+vZVcrsgY6xia4Ydi39ZzOIsUwQJSgCIEerPdiwAxGtNvG110ILGQgIj4j7FAewWQ9DtaNNyoZfpE6+AeK0jtfWb3vSmzC5g7uKvDpOSUgJAJlyZB+xdctRRR4UUsHE8ULIRCkfiL2Fwi37bCEVl7BFhfcI7xQoqgmaT7tTUreK2Q9rSOIYSpXGVfjj/Aw880PIO5r2IwGT0/ve/P7iVm5WC543rSrpXUT92ZerX141tXFm/QxEA8DO85pprWsYEQGjC8TfD3MQE/PKXv9wUEACSv7RJ0dLR/++gWY81ZWl1qpQRZJLFdPOwxNlBqvSf18ZMc1aHr4fmEZPTBADqYc6byAJAXecd99aeD7bTCA1xnNKWeVomA0Nanyp7HffYhQJMEDLRhsfvH94bphUqihsfbSJYO9ZcWVvuJR+9sfchpvszzjgjMEEWOIlrISmQ+WOBRrGS9xVONKjJtLic75RTTgkuRfGCZePQ7+AR4J1ucw6GxAgBzDK5xHFxxxxzjDvuuOOC+wZKtJjIHJaVNCOuN8htsqVgQTBacMEFS2eXsbb6LY8A/BeKBVx8yCbFXOLdBZNOVjPeJbxveJ8UYfz5qKtpuFGkYsVMEvFM8Ue5ECqyhFFTDCPYxi5wyT7ZR+jlY4Z2fsri87BfhpLXGz9/1k/SjTIteyPK7tjCZW0H/TsUAQBtJSZqky7ZJ3VebGYmYwlaLyYiCxsTrsxXDInMjiXKXgHLwzEsijOPMAawwcxfNEgn2X5Y1zGs89Zp3vHiI+tHUUJbHKeCLNO26DkmYj3c6pKZv9DSYwbOY7aLYEWaOvuGCfUxMbNwYL5Go4+bR6wUwOKAiyFf5uR9GgcJs4jH9z95frStBBAb8U4x6wVt8VHluyhZBJMW+/OyL+oPAsTvYGVKEveJvyTFfvQwT5bYIlmvl/vEzOEeESugivQP4x9/UIqxFln3YcxWW2215inQIIu6Q4A1o9t3GCPg3VH2Y4ZFmHSCbGOrT/JqUYrhMh3HctImTRufbJu1P8sss4RYSot/QEBCQYMlDQsVLpTx+fj4YtlsQ1nn7kf5UAQA/EMBi0Xqs5/9rCPDThoTi0DAZ8aRNJH2TNtVBIi0/oq061Qn2S/mpKI+/PTdjTsSWRB4KG3ynX766UHLSGo0TGsEHiKl426AL5pJypwXwWWim+TrNO9gANE0i4aHAM8XlkojNOTmeoEFkndDnHrV6hX9xcJHFh4UIFgQeE/GiwmuR5tvvnmzOzT4MN68J9hGk8q3AnD9w0ydFUSJ6w+JFswnFUEDlyKyfFhMAEHkuFTwvk6jGWec0SW1y2n1VNY9Ask1qEiPtGGNgCEZhGsgzDgCZxkBAGYK5t+eIa4LL4B4zmddKwIA30IRlUOANaRTMpRyPb5ee4kllmi+D0yRUKWfvDZ5/aLxRyFhFjH6WW655XKVGHnnio8h0PAuRtHDGFA0pymb4VmLCK9x34PeHooAwEXim8pHI2Ktv108gWeYVvA/5Q9JDjCxAmAWIseq+ZERBJdGCA6dAj1YQHfbbbdmc0wynTT8yQ/7EAATf4eg2VkfNsCA7B9cl7kFYLKP01ulnRahgXZpWKfVr3NZXeZd3j2CMYUBRBOBZpegZ8ywBAOyUMLIobGw4PlOZtS8c03kYzArxjSjqYTZwVeZMt5ZJC7guSvCwGThyHuMILO0gMq8BRCG75Of/GT44/7DoKcRzBbuSvECtummmwYhghitTTbZpJmJhUA/mEe0c8PyWU27holWhtUXF4kihKKNdSN+98eWmiJ9UAcrF5lLoG7iWUIHiX9YshA4eR/FwcsIm8SviPqHwBVXXBGUBL0+AwlLTCGA0Fn2o1tFxkO/aYS7EnxdrIlHGOUjYXlxJGl9pZWhfMOlDg8MXDTTaPnllw8CCOvsKNPQBABAiV9KLGZotHH7iU3XaeBhhsEqACOcleEARt2YdT4AgQYrSSyMMeEXneavhSau6I088MADm76/aPvzvnIYn7voNkIQKbgYK9mSCPpLSyMKtrj8oInZeOONtWBHANdx3nF5MPkEzzEv0rR8zHcCSskQxfOAME1QPYFLouIIwDTD/BOUb7TNNts4MnLhb2pmc9wx0Lyn+bxauyK/acx/kXZWJ6s9wXEw//H7FmUByQUglCsIMVwr7pr8oSRB4dDtNdnY9FseARh6/oyIB0DghyiH0ek13XHHHV35TmeNh/WL+UV8WkwImfH3CeJj2h4vBIi94y+NcGHk3qO0QsjEg4E5TLp0lBYoetN4srS+0MijcMHdKF7/sHwRB2P8YFrbsmWsmZwLYQOXPK4DpQsKNoQdfseBhioAxADBOGOuLkJYBYjqxryD1qCTTyPWBJjmTpQMTLb6uM4UFQCYeJapI40xtz67+UX7humfP5gRpPjY/ElaQB6cmNHt5nx1bluXeUewE6leEXaTxDxA8xG/FKkD47f99tuHZ0g+20nU0vfBEMxiszkueOYag9YLxsU+koP/dVpgbXrvgytlwSJJQPyOgvlHYRG/N1C04FqIYGPvNTDo5WI6uKuu55mwBhNTB3VaC0cJAZQQuEhgLYuJrEQI1KL+I4BFPBkbiEtgLODjNx8rifgOQOzTv/fee7e8Mxh13kfBUPYSb4SLYqx8SLta3BHRuJMCluQrWe5vfOMGZUYyHosAd+Kiin5sLG0MWWV85MvGT2xWUatcVn/DKB8JAQBJKmb+kfzwY2XSIQmiecKni+hqzJAW6ITZmrSbxBKMK+ErZ1mFyMhQlvA7nnPOOVuaYSWIF/GWg9ppIlCneccLOWb+0UIwr/jgCc8QhLCIWRRtoWWK4YWJqwfuK6LOCCB8xwHUCE7Mo9i0jPaSdxbMNOngCMpNZnxgYRsm8Y5Au08mIRgwrJVoydLeQSy+LKAINrhooHTJMr8P85p07mIIoByyeLq8YFly6RdZR4pqaJOjwycbF1pLBc42zwspdEWDQYAYpWScEgJ+LACQOZAYJCOym8UCALF1WZ4Y1sZ+ES5wayRNcRHiPUocEn8EvuOGmDYnUdIidNx4442hW+pgdcgTGoqcP6/OQz7RjKVdLuLihBsSrlFQXkKGvHP2+thICACXXXZZ87pIE4UrULzINg/6DQQBAjAsC8Ktt94aHy60HQfuZTUYlDSH9pC/LMLcThBfHiVdmVig0xbyuA8k40HFLsTnHaXtOs27eI4gQJM9JqkNRFi0Fz4vSHMbIBaGF3Pai3WU7tcojIXc1wT9o+HHBQjf5TRtOO6JxDhZjFLSX5+FLY/on6DIPEpqTlnwOqXqJC7AXCv46iuMPcIgjFfe/UcZQzAyVoDJ/rsDovFFoNM3HezKzKpl+3m/uG6UJRRXKB6wqOEygTBaVZgoe27VHw4CuKvFzD/u3AgYxEmxXqHh513JewbPDSxbeHxABCwjfKTFhRDHhiIGTwgSJ2BZykojOpwrdy3xpsMaQ/K8IyEAvPDCC81xEaCYxfxTCf8wTFYmADA5EApin8hmZxkbpIMcF+IBiK0jRcZNasJOBMM30QWAOs07XICM0MYkmX87Zr+xBpfYAf7yGEBrp9/XEYCJNkY6CxNj/rOO55Uj1JulM69efMwWyrgsuZ1UFqAN5q8IsVjzJxICvUIArT/rW5ZrR6/Oo35GAwELJGc0rFEoH9IUKDZa1mjiGM39EA1/mgBAfZQfKE5QrsQWWetLv+0IjIQAgI+XLXb49WMuJxNFMnMFWgb8xuIvTrLIlmH+gSD5oYZ2WHpTQraEI488slRnTO5RMQ+VGvgYVq7TvMOiY9mg8O8m/zGmVhbYmHADItc2H3cywnRqbkJWpt/hIoBGy9w0ejkSZXzqJZqj1xfuG+O25oj5H7151K8RxQoEmHp4OVyIsKwmCQsnx43553iecpjjzKVhMP+kZseaVYZQRCfdt8u070XdkRAASDWHppuXFz6mmHLwn8UdiEWQm0qwGgx1bPZGY0kGgbK0zjrrlG1SqT4R4qSLKkOYwmIBYIsttggf/ynTR5G6w554RcbY7zp1mndoSU499dRg/gQ3rEAw+swlzOq8YAlIRTiIvw/Bs8UcE40WAuQ/508kBMogwPrZ7ZpT5nyqKwTKIEA8Ed9IsXSvBOji1z/ZuxViCYCnwzsBzf9D3seebSPWsPhr9lY+Cr8EA1tAcNHxkJ1t2HzYSAgABBthuiGa3JgT/MBgVrIINwcyuPCxnToT3yXo9G2COl9/P6+tTvMOaxkLP/ExvDghniFSPWYRL1sCQQclEGeNQ+VCQAgIASFQfwRw34bhj7OKweRbMG0WArgL4deP1V7UOwRGQgDgcvBDRWt5zjnnONJxwsTE6fOQ/mBycGlA2wnT0snP2WAiwKion6u1iX/L5HTlmwFk9qlK3bStes6J3K4u8457yDzlOxo8R/jV8gwl/cJ5ZjDD8lVYvg+RdLObyHOhn9eOtckyQHTzKfp+jlF9jycCZM0p6wYbX2kv1hyUCWRcsWB3UsqKhEAaAlgBSHxCQDC8Hhl+kuk74fdwS8UyQH3Wq07uP2nn6mcZ62c3GavyMnD1c9xx35P8A9toKZg0qeULavGxQW8TmIjrD8EdRZn9QY9R50tHAEk9/hJfeq3RLK3TvMPtB9c5FmiY/XF7jsZ5HuXNboK2eT7s9bvAAgt0xcTlnatfx7DQ8qVpCDczEjiMKtV1Ho0q3owLN494DSArSy9jUOL5R9Y7mMU60TDnLO4slqkMXOM0n7hqo1yCSGfci2w7vA/x9ccaUCSJRTh5j/9hhSChDIRrTl2UY8wjW2eSkI2MBSA5MPZ5WfTyhZF2DpUJgSQCdZp3aFEU4Ju8w8PfJ1Ct6McFhz/a9BHwLQH+REIgDQG+mZGX4jqtTZkyzb8yaJWrm8fUw6DHHwYr13N6bd6Hw04BixJmotFwv0Yz0dDW9QoBISAEhIAQEAJCQAgIgSEjIAFgyDdApxcCQkAICAEhIASEgBAQAoNEQALAINHWuYSAEBACQkAICAEhIASEwJARkAAw5Bug0wsBISAEhIAQEAJCQAgIgUEiIAFgkGjrXEJACAgBISAEhIAQEAJCYMgISAAY8g3Q6YWAEBACQkAICAEhIASEwCARkAAwSLR1LiEgBISAEBACQkAICAEhMGQEJAAM+Qbo9EJACAgBISAEhIAQEAJCYJAISAAYJNo6lxAQAkJACAgBISAEhIAQGDICEgCGfAN0eiEgBISAEBACQkAICAEhMEgEJAAMEm2dSwgIASEgBISAEBACQkAIDBkBCQBDvgE6vRAQAkJACAgBISAEhIAQGCQCEgAGibbOJQSEgBAQAkJACAgBISAEhoyABIAh3wCdXggIASEgBISAEBACQkAIDBIBCQCDRFvnEgJCQAgIASEgBISAEBACQ0ZAAsCQb4BOLwSEgBAQAkJACAgBISAEBomABIBBoq1zCQEhIASEgBAQAkJACAiBISMgAWDIN0CnFwJCQAgIASEgBISAEBACg0RgUsNTfMJJkybFu9oWAkJACAgBISAEhIAQEAJCYAwRSLD5zSuYsrkVbWRVjqpoUwjkIoAgqXmUC5EOFkBA86gASKrSEQHNo44QqcKIIaA5O2I3ZEyHwzzKIrkAZSGjciEgBISAEBACQkAICAEhUEMEJADU8KbqkoSAEBACQkAICAEhIASEQBYCEgCykFG5EBACQkAICAEhIASEgBCoIQISAGp4U3VJQkAICAEhIASEgBAQAkIgCwEJAFnIqFwICAEhIASEgBAQAkJACNQQAQkANbypuiQhIASEgBAQAkJACAgBIZCFgASALGRULgSEgBAQAkJACAgBISAEaoiABIAa3lRdkhAQAkJACAgBISAEhIAQyEJAAkAWMiqvDQKXX365+9WvfuVefPHFQtdEPepfddVVheoPqtKgr2PllVd2c889t7vmmmtyL/Hf//63W3/99d0GG2zgXn755dy6/Tr46KOPuvvuu8+99NJL/TqFG8Q5qgx+FPCvMm61EQJCQAgMG4FnnnnG3X777e7555/vOJTdd989rHU33HBDx7pjUcF/rbWF/KBb9rUjBKogMErzaOaZZ24wnuuvv77QpVCP+rPNNluh+oOqNOjrmGeeeQIOv/zlL3Mv8e9//3uoB2b+JZpbt+zBovNoiSWWCGM4/vjjy56icP1BnMMGc8kllzTmmGOOxtprr21Fmb/9xD/zpGN2oOg8GrPL0nBrjIDmbP9uLu/Mz33uc413vetdzbULvN/znvc09thjj4ZXAqae/H3ve1+of8opp6QeH8XCvHk0pT8oEgIDR+CKK65wf/rTn1LPO8UUU7htttnGHXfcce61115LrUPhhz/8YbfwwgtnHh/EgTpcx3//+1/3+OOPt8Fl2nyO/eUvf2k5Pu2007pZZpmlpUw7vUPghRdeCBaHWWedtXedqichIASEwARH4LbbbnOf+MQn3FNPPeXgNeadd14300wzhf2HHnrIHXbYYe7ss8921157rZtzzjlrjdZICQAwe4ccckhY+I499thc4F955RWHGeaOO+5w999/v/PaWrfIIou4NdZYI9zUrMaPPfaY89o19/DDD7vnnnsuuDgst9xybvnll89qkll+0003OcxHLNJeO9hWD5PSdddd11YeFyy55JLOS6FxUdv2008/7WA0OZ/XArvFFlvM0S5mDi699FL36quvtrVNKwCrxRdfPO3QwMq+//3vu/PPPz/zfJtuuqn7/Oc/n3mcA1//+tdLCQCnnXaa89r93D45mGR28xrU4Tp+/vOfu4022ijzMrfbbru2YyuuuKK7+uqr28pV0BsE7Fn+3//+15sO1UtXCPzud79zTz75pFtmmWXCOzjujDXlzjvvdN5i5hZYYIH4kHviiSeCe8Fcc83lFlpooZZjE32n6hqehRv93Xzzze7KK68M7p4rrLCCW2mlldw000yT1SSUD7pd7mDG9GAv72UnvsogqnLfcO/dZJNNArO/6KKLOm8xdksttZR16XCzZb178MEHHTwIQgBCQm0pabLwF5osGsi+999tLL300sG8Mnny5Nxzeqa6seCCC7aYbhg3f14IaPiXQGr7rbbaqjHVVFOltlt11VUb/gWf2i6t8JFHHml4LWjoa5VVVkmr0rjssstSz2Vj5ddruVPbUsh4/ILTmDRpUls/XghotvPMQtvx+BzJ7Y9//OPNtv3a4Jx5dOKJJza+8IUvtPx5JjRch3/gGl773Nhxxx1bjlv9+eabL9TzAkDeKZrHzHUmiUOn/SIuQHW4Dr9gNnBvSf5NPfXUAWdcgZLHtt9++ya+/XRB6TSPbBCMj7p1cQFibnM9XjNll5j520/8M086ZgeKzqOsy/Iaw3A/jjnmmLYqX/7yl8MxHwfTdszuI+4GojcQqLqGv9FD65bX6ja8QizcB+61/U0//fSN3/zmN62Vo71Bt4tO3XGz2znb8QQ9qtDLe1mEr2LYVe/bySefHOYG71XOlUZeqdx429veFur9+te/bqkiFyA/K3tJN954ozviiCOc9zMuFMCHVn1lH5yIZgzN+Qc/+MGgBf7jH//oLrzwQnfXXXe5ddZZx/3+978PZp14rL/97W+dZ6bd6quvHqwFbKOhp9zf6KAFRXtAeSfaf//93b/+9a/cas8++2w4/ta3vjVoh9IqZ7lR/PWvf3Uf/ehHg5sMGgw09mif/KR1t9xyS0tXjBergGkNWw7+/w7H7r333rCX1FKl1e932ZZbbun4iwnJ/2c/+5l7xzve4d785jc7tOtphAT/5z//Oe1QbhkSvferzq3DQYI9f/rTn3asR4U6XAfPExrOJGH+BAuscgT4igaHwN133x1OhoXxgQceyHx/DG5EE/tMvH8vvvjiYHFOIoEVGvrDH/6QPBTWIQo/8IEPtB2bqAXdrOFpmLEeYvn3grDzPtxh3fRcm/OMv/vb3/4WgjbhDXjPxTTodvG567Ld63tZhK+qet/A3KzWXmmbyQuYhwXaf87lFaZ1uV1t1zFUFyBcOA488MDmoGCUyWiRR7gJwfxvu+227gc/+EFgFK0+jPzHPvax4M/8jW98wx155JF2KPySqeTTn/6089aDlnKvwXHf+ta3wuSgjw996EMtx5M7vOiLMIgmALz3ve8Ngkmyn6x9mHUmKEwubj6492CuiinOdoIAYItQXCfe/uEPf+i8Bt3NMMMM7oADDogPjcy2+aFPN910fRnTTjvtVMjVizlQ5P5mDbIO14HrAsw/hJA8LgLAmWee6Yx5zro/yfLNNtusxQycPJ7c7/c5MFPHmZfwSfWa5+QwtD9ABMxNIG1u3XPPPWEkCGrE03jLWXNkpnTx1u1m2UTf6GYNT8Nul112Ccw/GctwAcJNFsLNd9lllw2uW6x58TPF8UG345x1o17ey6J8VdX7Bva4fUPvfve7w2/WP3PLLuMOnNXXKJcPVQAwBhmwd9ttN/f2t7/debePXLwQEk4//XTHop0k/Pg333zzEDxKoEeSDjrooGRR2P/a177mvve97wULBBJfngCAZmHrrbculO4Q7R2ERrsMnXHGGYH5px0+ae9///vbmnsTVVtZVgG+coceemg47F03RjZ4E20NhJDSDyKOAsa2E9mi3ale1vE6XEcsABEjcPDBB7sycy4Lm36Xo/Xjrwx5l7JSAkC/z/HNb34zaC7tGvBTxS9VWmRDZPC/xIlBycQFMBQwmhBB81iejdnnvYsvsXc7HXrMVRjgiPzrZg1PXgKWf7wIINZNY/7ZJ+6Cde+zn/1siP3Cem5BnYNux3jqSL26l0X5qqr3zbCHlyL2sNMabx4G3uXHmtbyd6gCAIGEaFYIQOQliZa6E6FdSWP+rZ0xy7jQFCXcTbyvYBAAEELyCKsCLxwCvjA7Hn300ZnVTdosy9Ban2hd7XoyT1LgwI9//OMQ2PrOd77TfelLXyrQYjhVjHHuJDCZq9Ob3vSmUgPFvDgIGvfrgGmBCTVCC+LjZ9xZZ51lRSP3S37mtGf+3HPPDWZcmDIsgGlEoGARGsQ50IJZAgRcI3GJI9kB7zzcE00zVWS8qtM7BEicgNYQ617MSOK2COF6QjAwrnQmAGAZwKKNxTm2CvRuVOPZUy/X8B/96EcEmzWTeSQRWXfddR1KL+4DSSCw9kODbpccV132e3Uvi/JVVe+b4U3mQAhlIN/5SbqFcQxBkqB+aLXVVgu/df03VAFgvfXW6zmumM+hGWecsXDfMA6mGc7LBgRjhGsRBJPOJMojEwA6MbRxHywgWCFw68HU1S2hlTLt/6677ur65V7T7ThpX5RxRrMGdRLWQiX/DwETX8WyVGYOxX2P83UwZzfccMNgKsXv+aijjgop02BEYYAOP/zwQjEyMR6D2Mbyl0ZobHmeyBC2zz77pFUpXNbvcyBoseD885//DAvTF7/4xSC0YJFEY4XChHcOzKZocAjgCgcDiRCAAMBHAonPgnyih/CLdQYBAHc53Dch4sog3DiZhyi5Jk+eHMr0LxuBMmv4rbfeGjrC9TeNWCPImMd9Ma0u9QbdLm1sE6GsyL0sw1dVvW+GNfGfn/rUp0K8KPwnCtEtttgiPKM85wgYeINAeHoMO824jbtfv0MVAPpxUbgrQPPPP3+h7v/xj3+EdE9UZoFNxgdYJywAaBNgkNDMk0e2qACAnxyavbe85S1hAchLKwWzAhE3QNo4fP05D1pAzJe8zMwf1caW94vvMBorgo1xsxplIp0rRF5eiAWXQGuEovh+Wn76ogIAsSKDpHG9Dl7EWLUwszLXYHS4B8whzOhoaQiyR0OCNUnUOwRwWeS9gjKC+X/eeeeF9HMErZO2+JOf/GRgInn+sWTtsMMOIymI9Q6R0emJIECeCSOwTxLPCoR7Kn8xYbkh8QLuKaR0FuUjUGYNJ/AXyktsgSsQAkCM/aDb5V9xfY92updl+aqq9y1G2GfuC+9a+Kq99947/GHJIH7HCGvxoPkGO/cgf2slAPzkJz8J2j4AJOA1jXAJgNHhZYDGDQ0OQgAaHJusae1wgcC/kwUZl5oiRL9QvCjgR40WiIkHU5Uk8ydFa8SHsNAC8pDEtOaaazomcezvGB+3bRhlNLYQwc8IIKNMFkxnGjSuGwEgmQvdLABZ1gy0BGnBet1eO9qAIsLXuF0HOMPc88fHUbB8/OIXvwjMP5ihIUHwJZCOmBTc33hBEjvD4joMwgJH5rBOZL6e+O0XMefybO28886h20Gc4z//+U/QQiFk8bzCyPBOiq2GuAEiIGCBIBMNwewI9d/+9rc7Xb6O9wABPhKE6xWuh8aAmCsW3waYcsopQ8Y5Ytp4N8XHOD3vadwV43vag2HVsosia3h84RZnxz3KIrPk2r2j3qDbZY2tzuVF7mVZvqrqfYtx5jlkHcOllT8sQzy7KLWIByPBTJ0z/8RYtCVr9we9S91wyPu+Nji/Z5BLD8AHLTa8FBfa+3SPme29i0+ow3nsz2fYCTn7sxp997vfDXX5hoDPJNCstueee4Zyz7A2y+IN72/W8Exqw2tRG15waPsGAbmlk+QX+dCnZ6waPsCm4SdlwzPvISe+Zz6bY/Z+psmmbfunnnpqc9yeYWg73s+CsvPIf4EvjJVr9laPMDRyONOPZ6hbhsq1U+6ZupZy2yHntt3bXv4WyeU9btfhGdCGz57RxMun1W14dwWDsuXXC8wNb2oPdT1T0/Ba0XDcL6zN9t7VqqVNtzvcvzQaxD0exDm8S0l433GdH/nIRxpeAEu73GaZD8Zu+JiF5jPCgX7i3zzxmG9kzaMyl+UVR2GeewtNaMZ7ysePNVhTIO4f5+GeQrzz2ef+iDojUHQNt568YqjBN2PA2CsDrLjt1ysuQh2+HwMNul3bgAoW9GLOFjxVz6sVuZdl+aqq962XF+fdYxveCttIfh+gl+fodV9582jsLQC41+y1117hWwIeuODGc9JJJ/lrTieC6fxHg4LEh6/27bffHjT7+BBuvPHGzjPNLalFyRv7la98JXRGABFfFyxK5JGNibGSioz+SDWJNo8Uf3vssUezGn6kEJYAtM1oOU2jRDltyciCqxBWACToLDrhhBPCIdwHsFyMMpGnGcJXm8wCeWTZo7JcgHDlis15WX0RwIe7Di4XpIvrRPTbicbtOjB9YiXC35HnCD/5rO9gYLlCk37KKaeEeABzy0L7ZlaPrHvSCbeyx/fbb79gmSjbrlP92KIxiHPgYkUwGrhus802nYYXrAXJQH4se3wPBcLPXNRbBLDCYnFhfYGwIPOtGayTaPyxJLNvGYJYR9AyWhpdni0IiyXPjqgVgbJruLWOLcOWGMKOpf2aBXzQ7dLGUteyoveyCl9V9b5lYY27Jc9uGTLrcG1iA5LShgcjWTSw/bIWALTasUbfv2iDdF9mwGgs991336Ah4Nr9ot9s7idI0N5Tztdz/eRuHmOjkwWgpXK040394cuq9GtaCTvso9LDWLBmpGli/Yuu+RVkH8Rizdp+0UR703Toy/ugth3vd0HZeeSD6sJYfZxCc2hZFgC0z/Tv3TuadatsmIa3iGa/aP/jeh3MSSMsWj4GoOEFVCvK/UUzg9WONt7tLbdu2YNl51Gyfy8sBkuFZ8YaPiAtebgn+70+B/Oar5mX/fNKgZ5cTx076WYeebes8L6hj27+fBxWHaHt6pq6XcNtjcDanUXeZS7cN97NRoNuZ+ct89vNnC1znl7VLXovu+Grqt63tGv0btiVn2cvyKd1OZJlefNobC0AaNCJ4sYH008K581JhTRoHowWQmPJR8A8w+z4wA9ac8v0Q1CeZQcifRQZUWKyr6ciSVrkOLEHnbRwpB1F28qXaZFA8QM27YR9oIIgYPzRkkQAMWkL8W3mwzNZRDQ7EjOafy9UZFUbmXLiKvDLK6Jlx/eZ+IpRtGqM63UwJ40s1eELL7xgRbm/aH14fiCLzwg7A/7HOLCqYQEkVS/+osn4mdlnnz1YmT7zmc+EbEdlU8kO4hxkrSLYugqR7WpQVpgq4xvHNlhczfcYCx8Bv1hVee+TLpBYGCw5xM9gNSKRBNYy5iL1yDoC6b603v1erOH495M1K/bvbz3LG/7+sSV90O2SY6rbfpl72Q1fVfW+peFNbJVl80o7nlYGz2exnWnHx61sLAUAXrpkK+HBJ2juggsucN1+sGGttdYKAgDMDwGPmHAtgJCbGn+xOHmTMf2SYhPCxYiMO53I3Cdg0hEy+IohBIMC5QkR1r+l2AoNon9eDG1+yRacxoEQePgrQl5jX6RaqEMgtQl0yUb2IJ9zzjnNdH5xHYQtXITKMIl1uY4Yh3HYJlsWbnxky4JwY0JA5Dkm8J7jPNe4ZcC4wZzh+sRXtqlThAZxjngcmJljpiU+Fm8jdCW/chof13Z3CMTpqplLCAAE9vLexl0RlywEaITDQw45JLgKWZasTTbZJCRg6G4E9WvdqzWc+4ASzdyv0pCyrGwIaUaDbmfnreNv2XvZDV9V9b6l4U4SlrRELGl1rQy3bFP8Wtk4/46dAICvHzcN5h8JDskTC0C3BNNsZGk6SfXJop9FTGQiyFmk8SGH6Sj6tVR7YeGDTcYfI9P643Oa/Ky81TG/NbKxpBHaT9PIsgBNZILpA8s8QmvKXxqxqJcRANL66EXZMK6DdIfeza3j8ONnp2PlPlTg/GT4gfmfZpppgnVtyy23TM1QRGwNfthYkYijIduD5ZbOG9ogzpE8P1mX+CZDJ0IRMO2003aqpuM9QMC+CEyWMYsfMusZ6wbxRKR8tjimZZZZpgdnrVcXvVzDyd7Hc4wgn0ZYZYjzg1ZdddVmlUG3a564ZhtV7mU3fFXV+5YGO1kdyzLzZglM628sy/zC1kL+Ilr2B7lTJAbAa3SD35Zf8FJ95LPGG/s4p9VZe+21Q78+CDXtcGpZ1RgA/Pi9wBDO5z+21NK3DyxreDNXOOY/4NVyjB2fvrThgy7DcR+w2XacgoMOOigc94JJW9xCaoM+FGbNI691bXg3n0J/9MEfUfed2tBvGuGfTpxHmb/77rsvnJdzZ82bulxHGmbemta8frsHRX+Zn70kztuJ7rjjjuZ4vTWwU/Vw3LtyNNt4Rq5jm0GcwwbBO4jr9h9fs6LcX94Zdn+Y56J2BIrMo/ZW6SVeC9nE2ytYWiqRsc3uhbcstRzTzusIVF3DyVjGs+qVW00oiXsxvNNi3fwXzcNxryxrtmFj0O1aTl5wp5dztuApS1erei/zTpTHV1W9b2nnUwxAozF2FgCT5nGhQfOepbn1D0/Qipk2n7z7aGYw+/OBLSPaY8K1bwCUcS+xPtJ+cTPYcccdw6fH4wwzaCSIE7BPyJNhIiY0mGjtyQvuGfmQc91M0Pg5so0Uiok5SzvLR08gMupkZXSJzznIbTRnZd0VikjpaN7SCO19Wd/bItrUulxHGmZWRpYp8v13Ii8kdfwmRac+ujkex8LEWr68PnEX4tnwC0PIApZlTbM+BnEOO5d+RxsB3E3tHYtGMib2TzvttFBk1tz4uLZdUyNfdg0nZzvWf9xkLcMSLhmsc8TMEFNHdhlzr8VVy9w/ifmJadDt4nPXabsqP1YVg6r3Le98xOwUXTesn8UWW8w2x/p37AQA+yIjH8bp5Prjc9EGZpo7xELPp9l5WeAbjK827j248OBeAfGxLPPlDwVd/KNvhAr+8O+f7IPCcFuCkeAX4mWGq0KSvvrVrwbXJq91DF+sI86BVIsIMIyV+ACCnvGHSyNjmL11Ie3wUMtwa+iVkBVfiMVOxGX93K7LdeRhhDBaRHgaZuAv4ydwnI8xEU/jrWa58Tp2vdTjnUC7Iql9B3EOG5t+RxsBmHwTAPgyc0wwKEb++zK2qd8IgapruCmOkh/0O/nkk93qq6/uSOsNM8cab2s7pyVFazJ1LuWDbsc560ZV72U3OFS9b1nn5JnlI5gTkUZKADBtvf2m3ZCswNe0urH2myBf4gXwF8QnPPYL56XhTYVBu57WT1aZjTPNR3yGGWZwLA4IKvjsm98+faGtJrNEln8vQb687PjypzdrOu+S0hwCYz3++OObeb+bB/5/AwEDKwPkP5j1/6Wj80Oe9TjX+uiMrNxI6nIdeVfNp9KLPG8w3sMkBGEy55xxxhnOhGe0gXxRGishcTbE05AxjGtCMYAyAKJdliAdX9MgzhGfj+2i+CczHSX70X5vETCmn/UlZvg5C/usC8QOjaICprdIVOutyDvFeo7XcAvw5zsLMYEzMQBo+fkeCUGpEFbyddddN1jTba0eZrv43HXZrnov867f7lUaX0W7qvc765xYk4p8VT5uT9xPUhCNj4/L9iR8o+LBmlk8LqvTNkwATDLZfsgKgDsQzHq/CFcgAn7R3PNCIrNH0awjjAntKkGKZKxhcbEMQP0ab6/6Hed5xMfYzKKAe4sF+fUKm0H1U/U6EDJjobPMeH0MQCGGumifRecRrzE+0sLn57lnMRlDFpcRrM9H9I4++ujCbnKDOAdjRHOsNKDx3ep+u+g86v5M6qEfCLB+IoSz/rF2G5OYPBf1UPRhcY9dfZP1kvuDbpc8f9q+5mwaKq1lVe8bvfDRSyzBVYgg/7wEMVX67FebvHk04QSAfoGsflsRyJt0rTVHb68q4zxqV1L1OrCG0bYKHXHEEc1vWlRpn2xTdh6hzSHLD25wuPfxtVYyVcDwGwPBdzHQFpYRxONx9fscpJIkW1FZAiu+RzKuAmvZ6y1Tv+w8KtO36vYfgXPPPTe4w+I2y3c+JgJpzvb3LhNTwrefqhBu2LQfB8qbRxIAxuEOjuEY8ybdqF8O5nv/FdagGY4DuEd93Mnx1eE6xnkeJe+H9oeHgObR8LDvxZlJloG17qKLLnKkkZwIpDk7Ee5y/68xbx5JAOg//hPyDHmTbkICoouuhIDmUSXY1CiBgOZRApAx2yVrHt9dIENelm/4mF1Sx+FqznaESBUKIJA3jyQAFABQVcojkDfpyvemFhMVAc2jiXrne3vdmke9xVO99R8Bzdn+YzwRzpA3j6aYCADoGoWAEBACQkAICAEhIASEgBB4HQEJAJoJQkAICAEhIASEgBAQAkJgAiEgAWAC3WxdqhAQAkJACAgBISAEhIAQkACgOSAEhIAQEAJCQAgIASEgBCYQAhIAJtDN1qUKASEgBISAEBACQkAICAEJAJoDQkAICAEhIASEgBAQAkJgAiEgAWAC3WxdqhAQAkJACAgBISAEhIAQkACgOSAEhIAQEAJCQAgIASEgBCYQAqkfAptA169LFQJCQAgIASEgBISAEBACtUSg0WikXteUaaVZldPqqkwIpCGQ9/W5tPoqEwJpCGgepaGisrIIaB6VRUz1h42A5uyw70A9zs88yiK5AGUho3IhIASEgBAQAkJACAgBIVBDBCQA1PCm6pKEgBAQAkJACAgBISAEhEAWAhIAspBRuRAQAkJACAgBISAEhIAQqCECEgBqeFN1SUJACAgBISAEhIAQEAJCIAsBCQBZyKhcCAgBISAEhIAQEAJCQAjUEAEJADW8qbokISAEhIAQEAJCQAgIASGQhYAEgCxkVC4EhIAQEAJCQAgIASEgBGqIgASAGt5UXZIQEAJCQAgIASEgBISAEMhCQAJAFjIqn9AIbLHFFm799dd3f/3rXyc0Drp4ISAEhIAQEAJ1ReCZZ55xt99+u3v++ec7XuLuu+8e+IIbbrihY91xqCABYBzu0gQc46mnnuo22WQTx29Vuu6669w3v/lN98tf/rJ0F7Q577zz3N///vfSbdVACAgBISAEhIAQGE0EYPq33nprN+uss7qZZ57ZLbHEEm766ad3s88+u9tzzz3dSy+9lDrwiy++OPAF999/f+rxcSucctwGrPFODAQuvPBCd+6557pXX33VoY2vQr/4xS/coYce6jbYYAO35pprVumiUJsHHnjAff3rXy9UN63SIYcc4mabbba0QyoTAkJACAgBISAEeoTAbbfd5j7xiU+4p556yk0xxRRu3nnndTPNNFPYf+ihh9xhhx3mzj77bHfttde6Oeecs0dnHc1uhioAYHJBS5tHSy65pHvXu96VV8U9/fTT7oorrnA33XRTkOYWW2wxRzukuyJEOyRC6iMJptErr7ziMPvccccdDukPhm2RRRZxa6yxRphEaW2SZa+99pqD2Xv00Ufdsccemzzcsv/YY4+5Sy65xD388MPuueeec3PPPbdbbrnl3PLLL99Sz3YuvfTSwCzbft4vY1988cXzqgz1GNL35ZdfHsbA73/+8x/3lre8Zahjyjs59/OUU07Jq5J7bLfddpMAkItQ8YNoaBqNhlt44YU7vrztuY97n3LKKcOzNs888xR+rq39P/7xD3fLLbc4Fhie2xlnnDE8sx/84AfDAmP19Dt+CPzud79zTz75pFtmmWXCGhNfAe/qO++80zFnFlhggfiQe+KJJ4J7wVxzzeUWWmihlmPaeQOBMmvjG61e3+qWj2Btv/nmm92VV17pXnzxRbfCCiu4lVZayU0zzTTJU7XsV23X0smY73TLd3TDV1XBn/uLZwHM/6KLLuqOP/54t9RSSzXvAvzGdttt5x588EG36aabBiEAIaG25BfLFvIX2rLfz53LLruswfny/o477rjMIfgXcsO/kBuTJk1q68MLAZnt4gOPPPJIY9pppw3tV1lllfhQc9sLKY0FF1yw7RyM2wsBDf/yaNbN2rjvvvsaSy+9dOhj8uTJWdVC+VZbbdWYaqqpUs+36qqrNrjumLyWPLVuFq4f//jH4+Z92ebcVcgvBI3NN9+85Xq23XbbKl019t5779CPtwCUbj/DDDOEtt43sGNbL6A1fvazn5X+e+tb31r4HB0HUdMKZebRb37zm+a8WXfddTsiYs9j2nPyjne8o/GVr3yl4YXRjv14pr/hF5PU9xB9837yi07HflShfwiUmUdpo/Aw/8nBAABAAElEQVQawzC3jjnmmLbDX/7yl8MxHzPUdsxbBsOxz33uc23HVPA6AmXWxjTMuuEjvLDe8Iq/5nvD3gXeHaTB+ySLqrbL6i+tvNs5m9ZnL8u65Tu64auq4n/yySeHe+01/g14vzTySt7G2972tlDv17/+dUuV973vfaHcK/xaykd5J28eDdUC8Oyzz/qxOecZoaA9CTuJf7PMMkui5PVdgjM/+tGPuj/96U9BUkejjXbG39SghUttlFK4//77u3/9618pR14vQruw8soru//973/BEoE2D+3iH//4R4ebyl133eXWWWcd9/vf/z5Vy3fjjTe6I444IvihZ/mVJU/+29/+1nmmwa2++urBysA2lhLK/YR0G220UdBWUA7xi9UDd5ks4ti9994bDie1VFltBl3OGDfeeOPg+oMmFkkcCf0nP/lJuDa2R5G8sOA23HDD0kPj+v7973+XbqcG6Qj8+Mc/bh5AM4VVD9NuJ8L3c7rppguWA6xtaIn4Peigg9wf/vCH4POZ1gdaS1y/sOr997//DVWwVvJ8vec97wka4z//+c/B4qdYkjQEx6eM9QXrEhbgJFkZcyVJrAvQBz7wgeShCb9fZW1MA60qH4G1Dgs+zybPK/yEZ+ScZ/zd3/72txDsyRrP+h9T1XZxH3XY7obv6Iav6gb/q6++OkDvlb1ujjnmSL0N5kGCCxDn8grT1Hq1KExKLv6ikkV92//hD38YpClvGi11Ds+MN+abb77QFundm1/b2vtFvK0sWXDPPfe0aNrTLABod8EELfTLL7/c0sX111/fMC3uLrvs0nKMna997WuhLe35s7qTO1gA0Cj5xaStvy996UvN/pCey5B3OQpt0Wx781eZppXqlp1HPuC28f73vz+Mceqpp26Ypu3EE09ssE9/WHu8mbbweAZlASg8oETFMlaGRNMJs1t0Hnn3m4Zn4pvPB+18/EcuTmYB2GeffVrq+Zd+01pHP1maQB+b0jwfFsJbb721pR/b8Yxjg+dPNDwEis6jrBHyfqIP74LZVsW794RjWG29u2LLcdY22nn30Zbyib5TdW1Mw60qH+GVeeHeePfahncjbnbt/cAbXpAPx7w7ULPcNqq2s/ZFf7uds0XP0896WXxHN3xVN/hjGQbXNH4txgGvAepts802cXFDFgCPSq8IDR3kze2lujzjjDMcmjXa4bPlGce29t6E01YWF/i7GqLAPVMfF7dtY504/fTT3WabbdZ2DH98767ivJtS8PtNVjDNBFpB/Lzf/va3ux133DFZrW0fzWMa+Zem+973vhci1JFMP/ShD6VVayvDV45gWGj77bd3WVaVtoZ9LAB/L4A5L0Q5z+SH+A1OR0AOmX+Id4C23HJL55mrEAiMn+ZHPvIR592g3Gc/+9kQD+GFqVCvX//Q0JvlBl/AtFgErFA/+tGPSg8BTbOoNwh4025I4/bOd74zzJGzzjorxGXstddepU+ATyhZoNAKYvkj9udjH/tYSz/EHJ122mmhDF/RE044IXVuUAFLnmi8EbD3Ec96TFiKiPeAWEvQ+HvBMuzz3sWX2AsGIx1zFQY74H9V18a0YVbhI7DgY4GA4CfIBGNEvAbrJWsM6xNeBRYMWrWd9T2RfvP4jqp8Vbf4wyuef/75TW+IrPsBfwl5hj+rSj3KW8QbuDIv9QyKfLqlcD6foaXUKU1zV9U3nJMdfvjh4dw+cKux8847h+00C0CngVk/aBGS5LPYNDwz2/DuAeGQScOdLADJfuJ9H8AbxpoXGxHXZ/v73/9+aOOZo8Y///nP5OG+7OfNo1/96lcNfKypY3/vfve7Gz5lZ8MsN1h58L/mF2Ibf1rqWRt+0dR4Zi31GnphAYjPhV9gGl1wwQUtY4rbFNkuEmeQdt6JUAZ+RcgH74d7gMYGv03D3S/ymc3tPZK0AFgD0wLut99+VhR+sQSaJsgLrG2WwZbK2hkJBIrOo7zB2rvHM/zNalh36NsLi+E3tvTwXHMM65CoFYFero1V+AivkAv3Jm3dZqTeRaVpsfcKuebgq7ZrdlBioxdztsTpel61G74ji6/qFn97Xr2LcaY3gVf4hrkB/t7FuwUXe+8rBsCj0y2hPYHKWADIxoD2G/8zb8apNAS0Mt/4xjdC26OPPjpkEKrUkW9kWlwyfiRpvfXWSxZ1tU/cA1kloKxsQMkToJUy7f+uu+4afJ2TdQa9Twou4ii4D2jWTKPvXX2aQ/n85z8f/P/J1YuFBY0B8RqeqQ+aXXy8yeKC/zbt+0VYb9DgQfabdS78zfEHL0vvfe97yzZR/QgBMrCQeQfywZZhTqHFQzOLZWbZZZeNahfbpC1ZX6Ck/zYWQR+4GI7xbL35zW8O2/pXTwTI8oUlkOxpjz/+uPMKjOAvztX6ANRw0cwRsgERq4V/MUS8FkR2OSwHvD/6bbEMJxyDf71cG6vwEd5dL6CUtOwZdFjrySTI/TRtMMeqtrN+J8pvt3xHFl/VLf5YYz/1qU+F+E3moHerDt4FPKM856wXeFlA8B7wKXWmoQYB24NLMB0BVLhX8ILMS7sE8w/BNJFWDfcMzPGY6THT8dDGaZ2SN48XufcDC0F+5IeHGaV9Vfr5z38ems4///xVuyjUjhSDuBpAK664YnCLKdLQ+9IHEyZuP7ghjQIhvF111VW599mL3WGo9mvjRkjwlp/wRxkvmk4MGGbDgw8+OAR4EWjMfKOdufcwDzFJs4Azd+KPj5GKNckA2liSv7ideQ10slj7fUbAgn95BgnShwjK/u53vxte9GXTyJJW2Fz+fKxReF/El4DAAfEO4l0iqjcCBAHyDjHaYYcdbLP5i1AAIRzyF5OPWwqB4biZMLdEvUWgCh9hQfl5CTFQIiAAxPesarveXvHo99Yt35HFV/UCf1yO4f3g+1Ao8gdfYYkcQNdn9HI/+MEPRh/oLkc4VAEAphaKX5owUQgB3BR88JJk/pZIbGiGv/jFL7ZlUuGjT9zk2K/P+vEpNoOfJhHgxjjYsbK/ZKcxgeQLX/hC2ea59fkIFhpyXj5/+ctfgqYJvGBG7eHI7cAfhMn1prRQ7dOf/nSmj3KnfvpxPE/IK3O+Tlp5+iJTE39FKM2SU6Sd6gwHAfxMeVYgMkgZIYghACDY8X5Bm5NFxBFhHeN54f2CMgGmgmcNP//kXLVsL8SriOqPAJY9LIEoD4wBYR/CSkTGMuow15iP8THqsA696U1vKmXppp2oGAJV+AiLG8jLEmZrgd1zRlO1XbErqUetbvmOPL6qF/hb7ChxYvxh4eHZJX4MhQ8Kxlpn/omm2VAFACYK6ff44AYvUV6maPRZYAn+5OZcdNFF0XBdMNNQgDsMzD+mOqQ1XEFwCcFERAAf6b0IGo2JL7zRJ0wjTEEZ16O4H7bPPPNM52MHQjGaeT4e0kuCcSftZ0x8uAKmhmstQj43fcCL6x0V7X+Rcfeqzic/+clgHYCBi//AA4kfixOuRbzo+eMz4BbsVWUMWCvMdFmmPcxBWnBxmT4mal2Yf94b3N+YyUezRzAmAjrKgPhYEiveGWZajo/hZpcmYJpLQL+tfvFYtD08BAgEhVDEYPVB8GMOYEHkXcw8ow6uP2j7ve9/cBfiXYJbAe5ieYzm8K6sHmcuy0fEglxeQgzjD2AOoart6oFy8avohu/I46t6jT8Ko1hpVOQK+fgr/CoK6DrQUAUA8qzGhGvGNddc4/wHeALzS95lmPY99tijWQ03DQhNnWXrMI0L5bTF3cMWfjT+EPlfOQb5NJuVGXbGSGYRcvvD8OGOc9JJJ4V+e/kPFwS+SszLh5zELCpkmMBnkUmLm0on1xcyk0Awwlk5b3s55iJ9ffvb325qbPPqk3kBwrTO9x06EUKgD+Zsqca94W9QhFDqPypX+nTGUJRuqAYhTgQYYNYx2cdEhi7eAwjSMGxod9IIP0+eNZ5ttH3MPZQQmLF/+tOfBmUBroJG9t2QOGbFjum3fgigaGJOmDsillm+/cI8QOOPYMC+ZQji/QzzCPMPmfCJsqubL4bXD9neXFFZPoLMXkYwlZ3IlDNV23Xqv27Hq/AdRfiqXuPPes2zW4ZM6Vub2AD/UmshD0bL/jB2vETfsKwe5PuPyX+UA+fwkBvev3DjQ2HbP9DNr/b6II9Q5m90w7Ln8BVcP9la2lkWAa/BaSlP7vhFIOSB5vz8+Rd7M0tNsm7afjdZgMhKsO+++4bzcu5kZpLk+R7yuYyJdKeu10olD/d9n/OmEV/E5Fiv/3r9pc0yOfq9C0nDa/tS/7yGMFwrOeqz6nz4wx9Og0plHoGseQQ4PI9eCA51/EfVGl4L2/JHtimbZ7vvvnsbnnlZgLzQ0PBCc2jPr2WnohNrt/baa7f1qYLRRCBvHnUasbcmNeeRzacqv17b3OlUE/Z4N2tjFmh5fIS9l8nSl0U77bRTuO/+A2HNKlXbNTsosdHNnC1xmp5WrcJ3lOGreom/dzOv/FwrC5Cfnf0iNNto2XGtQUKLg/h8KrZwWkyxaRo9XAFWWmmlkOf1gQceCHUJ+LDsOZ7ZckcddVTL0MksBCERWgQ4Pv2x+R8tIlHjuBv4SRhccQYZ8Imr07e+9S3nH7DgfoSUbZmMWi7m/3eIZkdiRvPvhaa0KkMp4xo8M9bzc+eZcrEkca98ytdgYer1yTH9W2xKsm/mkf9QTQg6GtUvGSfHPC77xAChgYWI58mL6cH17zvf+U6bP3/WtRJMzP0iwxSaXCyTls+f9w6Whfvvvz+rucprhAAWZfM95suwWCWxqrJeEBDO91nIEOQ/sOi8YiYkaCCOjfcO9cg6AvEOFw0OgTw+ApdPnxK7GdORNiq757GHQdV2af3Xsaws31GWr+ol/nwTgK8/lyF4RYs5KdNuVOsO1QUoDxTzr4WJhXn3+XpDdfy0oZg5DwXRP2MGzR/73nvvbR498MADm9vJDUy4BANCuOBYP7zkiSnghYFvsc/7PrQPRKy11lpBACAdHYGK5qcYX4sX6YPrAmWMe5SIQBv+jBAGiL73Of775ieLqR68MMGL6oOAZVvx1poQy5F2ZZiWEdpxHSR4HleNooQigYxVPE+8Q0wA4MN0EGVX+WxWoyRgF7021SuOQJyykiQVCAAE9rIuEUNEKkGYTeYaaYCZL/aO22STTRwJGETDQSCLj+D+oVw0t6200ZmAj3BnVLWdta/zb1m+owpf1Uv8STKTlmgm7x7hdm4K47x643JsZAUAezDxs40DLkzrj08mjGOaH675daHxhfDfJbg4i1jI8RFG0idnOIs+L3oIH0EmCcw/EiMSKxaAYREPmRHWjjTiC4dYCiAWoFEmtOME0+Fbp0C5Ub5TozU2MveYhY+gs6ysDTy/BGMiAGIxKCMA0Maetzi2gwQFxCahCeJbJHfccUd4Z4wWQhpNPxCwLwLffffdwQJE/A7MP8T7mH3iRxAMoCLxS6Gi/vUFgSw+ggxfWPH4nkwaYc0h7g6KvzNTtV3aOepWVobvqMpX9RJ/YirLMvNmFarNvfMLXAv5C2vZH8YOfvyeEQ/+WYsvvnjLELw2t+HNQOGY/whPyzF2fNrMhmckw/GsL3wmG+XFAHimIfTlGYCGf5kkm5baL+LniN9iHuF3zD3y0eiZ1fhyIXW8QNMW75DZqMcHis4jv1CGsXohrMcjeKM7zyCGc/AVv6LkF4eGzwHd/Ipzsp0PFm347B4d/zbaaKNwbp8vvmNd+qNf0RsIZM0jH2gZcMU/PxnT80br17c8kx7qemVBwwfUNw+bL3/We8LunVcINLwbULMdG94tJPTJ+HywcfhSdUsF7YwUAlnzqMogvRayee+9gqWlC6/tbx7z1tmWY9rJRqDI2uhdgRteK9/wyq3sjqIjeXwE73fmBH9pMXJ8lZ5jXokY9dhoVG3X0knBnV7O2YKn7KpaGb6jKl/VS/wVA9BoDM0CgP/kjjvuGDLyxF/qRPLGb5qUnhAZGGIiBRNabTJ0+AkX/LrNREsGD7aR0jDBesY+blpp27QAmBKxEPhg3Mx+0BJmaeUzGyUO8P0DNEikAeVDZ0acF1OzfQOAL55mER8vgUhZhTVDVB6BvI/J0Rv3ybIdFOn9/PPPd/x1Iu6rYgXyUeJZ4ANtEB/i6jTH+ao0sT1YDLECWDYwOwvvC7MmYOnDIugZkpDakTpkmDLXQ2vD/SdDEN+XwBXJL0whxoB0wOaWh0sI7zE+KEOqQiwVovFHwCsSwgeiuBI0kjGxz7cjILNWx8e1XR0B4niwxvMsWoalqnwE73fWR55fYg3JEmjuQrh4WXzdZz7zmZYBV23X0klNd8rwHVX5qn7gj0tnbOUpcnsWW2yxItVGvs7QBABccmBm+cO/f7IPmmLxZSHmF+Jhx9yepK9+9avBFQfTOwG++OXjPgLjjF888QHky8dfrFuyL0DedtttHV1/YAi6dbnxInj4hDwvJwJ4CXYGK1yU7IuH+JRarELa9ZlZy1tP0g6rrAcI4F7WD3zNba0HQ6xtFyeffHLzHZH2fkheOC94XDH4Lgjpc5MCAEIBf2lEHEBa6ka+3cCCt/322wdBAFcDC/bkuYVI32tByqTvFdUDAZh8Y3b48nxMseKA77aIeocAgfjQaqut1uy0Gz6C9whxPTynvCNYc22t5QS4C6J0S1LVdsl+6rZfhu/ohq/qNf48s0ceeWTdbkeh6xmaAEDgHi9PGGt89s1vn1HjR0nmhQ033DD1IgjO5WVAnm9vvgsfWrGKPMhoUMniUZRMa8+iniQLJE6Wp+130kTaeew3rQ+CfIkzQKNInAN/RlybN00GK4eVJX8RoLCiQHygZlwIjWucbaHIuMm+Yz65ReoTtGfWoiL1qYP/eNrLgW9J8CcaPAKmSed5KCqEISggALDwsFDx7kl7Xnk2TfDGcpD3oRiCys8444zA+BMTgJBOXIBpJ0GGWCLmqU8pOHigdMa+IGBMP/MnZvg5GfvMIaw/RedmXwY5Zp3ammi/acPnC91Q/Ex2w0dwf4gBQMt/zz33hIxO9I/3AJZFvAzSxlO1HX3XlcryHd3wVb3Gn/c1H48tQ8T9xIJombajVHcSTl/xgHipJYriwz3fxoSH9gztNg8eH1gwE3qRk6Fh4yueLLy8fC1zT5G2o1yHzCU8VAQikoUAdyBeduNCRecRDBJBwFWIlHtmqs1rf/bZZzvvz51XJfMY5n5cQkTDQaDoPBrO6FrPynsTIQBmAuEAQQIB0j4k1Fpbe4NEYJzm0SBxGZdzwR9g0Wd9Z01MMubd8hH0j+INT4TY9bYTPlXbdeqX45qznVHqBn8+HOrjSDufJKUGQf5Yi8aB8ubR0AWAcQBQYyyPQN6ki3sj/Se+2VUI8y0+150Ii4iZjzvVTR5HGC2bKzjZh/arI1B0HlU/g1pOBAQ0j8b7Lp977rnB3Re34JNOOmm8L6bg6DVnCwJVsRoxJWeeeWal1riZ034cKG8eSQAYhzs4hmPMm3RjeDka8pAQ0DwaEvA1O63m0XjfUJKBHH300e6iiy4Kab3H+2qKjV5zthhOqpWPQN48kgCQj52OVkQgb9JV7FLNJiACmkcT8Kb34ZI1j/oA6gC7JJsWH+YiyUZarN4AhzKwU2nODgzqWp8obx5JAKj1rR/exeVNuuGNSmceNwQ0j8btjo3meDWPRvO+aFTZCGjOZmOjI8URyJtH6Z+SLd63agoBISAEhIAQEAJCQAgIASEwRghIABijm6WhCgEhIASEgBAQAkJACAiBbhGQANAtgmovBISAEBACQkAICAEhIATGCAEJAGN0szRUISAEhIAQEAJCQAgIASHQLQISALpFUO2FgBAQAkJACAgBISAEhMAYISABYIxuloYqBISAEBACQkAICAEhIAS6RUACQLcIqr0QEAJCQAgIASEgBISAEBgjBCQAjNHN0lCFgBAQAkJACAgBISAEhEC3CKR+CKzbTtVeCAgBISAEhIAQEAJCQAgIgeEi0Gg0UgcwZVppVuW0uioTAmkI5H19Lq2+yoRAGgKaR2moqKwsAppHZRFT/WEjoDk77DtQj/Mzj7JILkBZyKhcCAgBISAEhIAQEAJCQAjUEAEJADW8qbokISAEhIAQEAJCQAgIASGQhYAEgCxkVC4EhIAQEAJCQAgIASEgBGqIgASAGt5UXZIQEAJCQAgIASEgBISAEMhCQAJAFjIqFwJCQAgIASEgBISAEBACNURAAkANb6ouSQgIASEgBISAEBACQkAIZCEgASALGZULASEgBISAEBACQkAICIEaIiABoIY3VZckBISAEBACQkAICAEhIASyEEj9EFhWZZULgWEh8NBDD7l//OMfbp555nFvf/vb3XnnnedOP/109+EPf9jttttuwxqWzisEeorA008/7V5++eVKfc4444zurW99a6W2eY1eeuklt8UWWzg+KHPGGWe4qaaaKq+6jgkBISAExgaBZ555xj3yyCOBt5huuulyx7377ru7hx9+2O25557ugx/8YG7dcTgoC8A43CWN0W2++eZu8cUXd2effXZA44477ghCwLXXXjsS6Lz3ve91b3vb2yr9fe1rXxuJa9Agho/AYost5mafffZKf9/85jf7cgEIAAjc5557rnvllVf6cg51KgSEgBAYFAIw/VtvvbWbddZZ3cwzz+yWWGIJN/3004f3Lsw977w0uvjii8O78P777087PHZlsgCM3S0b/wEfffTR7tZbby10Ifvss497//vfX6huWqUHHnjAff3rX087VKjskEMOcbPNNlvHum95y1vcNNNM07FeXOH5558P2t7//Oc/cbG2SyJwySWXuD/+8Y8lW71RfZNNNnHvete73ihI2br++usLz9lkczTmX/jCF5LFqfuLLrpoofkWN/7LX/7innvuuaChj8uT23vttZf73//+lyxu21944YXD4th2QAVCQAgIgTFH4LbbbnOf+MQn3FNPPeWmmGIKN++887qZZpop7ONpcNhhhwVFI8rFOeecc8yvNn/4IyUAYP6+4oor3E033RSkMrRhSy65ZJDS4suAcbruuuviorZt2nVa1K0R50MiRBpEEkwjNF833HCDQ/OM9AdTuMgii7g11lgjTKK0Nsmy1157zcFQPvroo+7YY49NHm7Zf+yxxxyMDeYmFve5557bLbfccm755ZdvqZe2QxvwufPOOwNTipsM7frhHpB2/k5ll156qfvVr37VqVo4vuGGG3YlAID1KaecUuhcaZVwLyoiAPzhD39Ia55bBuN51llndWTccjvRQff973+/8HxKg4v3TKd3Be5mnZ7ZtL4p47krKgDwzJclnpFzzjnHTTll/uucha3RaHTs/uMf/7gEgARKv/vd79yTTz7plllmmbA2xYd5V/OuxT1xgQUWiA+5J554wt1+++1urrnmcgsttFDLsYm+04s11TDsZr1kHDfffLO78sor3YsvvuhWWGEFt9JKK3VU6FRtZ2Ou0283+BsORfk/q18Ff+4v6y7MP8qW448/3i211FLWpbv88svddttt5x588EG36aabOoQAhIS6Uv6KMaCr5mastdZa7pZbbmlboFicYbpjot4nP/nJuKht+7jjjiu0iMEgfuxjH3P/+te/3CqrrBImQLIztH/bbrutu/fee5OHghDAJFp66aXbjsUFaCjxo2XskydPjg+1bX/uc58L/u1pvsCrrrqqO/XUU9073/nOtnYIGGi7ETL++9//thyfY4453EUXXeTQ7g2bvvSlL4WH0MbB4nrkkUe6d7/73e7b3/62FYdfFtxu6AMf+ID72c9+VrqLz372s+7f//536XadGrz66qvBvIiJ8YUXXgjV3/SmN3VqpuM5CPCirsJcYYkqeo9XX311N/XUU+eMov0QgvvJJ5/cfqBDCc8u84PFit/kH2O2P479+c9/Dj2++c1vzu35e9/7nmP+ZRHKl1/84hdZhyd0+f777+8w/x9zzDFtwhxlBx98sFt//fWDIBYDxTp0wAEHON7prBOi1xHoxZpqWFZdL2mPcIYS729/+5t1F9ZP3EEQquEN0qhqu7S+xr2sG/y59rL8H22q4o8bI+9LNP6//OUvHXxRTB/96EeDiw8K09/+9reBH0QhUlcaugDw17/+1QH6n/70pyBx4+cN00dQBsxyGj377LOhGM0aWpc0mmWWWdKK28p4scP8ZxHWhpVXXjmYztESEvgBEw1Df+GFF7q77rrLrbPOOu73v/99mFTJfm688UZ3xBFHhMnGYl2EmHgE3MF0YGVgG40+5b/+9a/dRhttFLQVlMeET9tJJ50UipjAH/rQh5xJ5gg6H/nIR9xVV11ViVmKz9PtNuPiz4jAGwQAgns//elPW3FPfmeYYQaHhrQsoQUoyhxus802QTuIKw9/MHDxNvsIc9z/pGDGuDoxbmXHPtHqEx/CX1mCOS96j9dee23HXxnCNaeMADD//PM7XNYQ5KtQJwvAzjvvnNstGjUJAOkQsS4hACSVUdS2sjQrIOsChCJC9DoC3a6pSRyrrpfwFzD/f//739173vOewIdgIfvNb34TBAIEOtZ41v+YqraL+6jTdlX8waAK/9cN/ldffXWAHmVvkvm3e2KeJ2j/OVedBQA07i3kQWjZ7+eO90dtzDfffNikG979puHNqG2n81qwtrIf/vCHoY3X+rUdK1Nwzz33NLx/buiLMfhJ0dbca/HCcW8BaHgmruW412I0vBASju+yyy4tx9jxwZ3Nvunf6noLQFvduODLX/5ywy8mcVHY9przZn9eIGg5fs011zS8qSoc/8pXvtJyzAspDf+CC8c8o9RyrF87ZebR+eefH8bmGaDM4XiBJtTxWrRQxwtuYX/dddfNbNPNAS84hP69pqFjNzY2rjntzwtqDa9RangLR8P7Gzb8C6ZBm2mnnTbU/9a3vtXxHBO1Qpl5VBYjL9AH/L3pv2zTQvW9GTn0z3NfhLxVM9T3AnGDsfnA8oZXADS861/DayIbzHVvRWzssMMOjX333bdx0EEHNY466qiG91MN7bwrVJHTZNY59NBDQz9+wWup403zoZx74ZUlLcfGZafbeeSDoAMGPLdJ8u494RhriRf8Ww6zRnFu7z7aUj6Rd7pZU9Nwq7Je0o9X5oV7491rG8xxI+8HHp4/7pt3B7Li5m/Vds0OCm50O2cLnqbralXxr8r/dYM/71BwTePXYiA22GCDUM8r9+Lixvve975Q7t2KW8pHeSdvHg3VAkBKOcwx73jHO4KpJS3Yk8wqScJfH6JdVfI3LLgIpbnZxH1iZcD/d7PNNouLw7ZfDILmETMvgSVJMksFlgN8ydFw77jjjslqbft+YW8ro4BsMZjx0SQjmcZadM8IBM0hmqZvfOMbLe2xWGCG/vznPx80fLgmdINdS+c92MFPFmJcvSYsSz/60Y9Kd4v7RVHC7QrNLZYM/jAf82fb/CatNfS94oorBh9D5pho8AhU1bT3a6SYp7EGJX1O0bDhNke2ih//+Mdtpz/ttNOCxRSztqg/CBB/BfE+iYl3FjFXEGsJGn9zB8Wigi8xQeBYEESvI9DNmpqGYZX1Egs+1nkIPoRny4h4DS8MO9xAcVXCG8GCQau2s77r+FsFf3Cowv91iz88plc4prpzx/fG3Co9wx8X1257qAIAPriQl7ZKBXoao4h7R1XC5YQXAC5EmAFtLMn+8PtNY/6tngktmLKSBINHgAkuOywC3nKRrFJqH+YAxhIBAGEiJluYiKVIYzZxD9p7773dP//5zxALUMVlIj5fL7dZJCGCgGC8yabDSyX2yyQ6vwoRt3H44YdXaVq4DS5s/CUJty0w5yVywgknJA+H+0hh8l62VVRBLgK4VTGv+cO9wH7ZJs7CftnmD5c/K6fjtOcl94R9OpgVY/D44487b+EL15V2aq4F4jsAov4gQCIAYpS4FzFDSAIJCBcS3C2JZzIBwFuYg4vZggsuWDp+pD9XMRq9drOmlrmCvPUSpRBKQEuukezXa4rd9ttvH+4fArbXcocqVdsl+58I+3n4c/3Gc5Xh/7rFn4QoEPFOuEMn3bs4hmBCUD+02mqrhd+6/huaAMCLEi02i683x5TC1wSAqlpsGE7TkjMJmQxVyTTFaYvveuutV7Xb1HYIGaYtx/oQE4sPhICQRgSasoDBHKUJK2ltBlVmAgDnQ5BBW0YsQy9z7aIdJTi6LJHfvyohwJA5Kiv2w8qrzuOq46pTO4tr6eaaSOGaRzB5MH7cLwu+jX+J94j3LQaEZw3qt4Bx4oknhveCMZ5Z1/KpT30qNw0oMQuidgSIn+L+IgQwD8hgZgL/ZZddFhpgeeUdjNCPfzFEvBZEdjneayiBvPtnKNO/bATy1tTsVu1H8tZLS0OdFeSLUoZMgtxP0wZzhqrt2kdX/5I8/Kvyf93iT1wl70FiO+DPsKySnIVnlOccAQMvCwil6SgkTennTBmaAADzD8FgkcGDxRVGHIYJcxsPX5yeKQbBBABM+AResYDzYk2azuM2ts2LHOmePpA8yQfbjQDw85//PHRNAF8/ia/gku0EwrKAVikmsgLhGsUkziJjOE1YyKo3yHKYJbSbRmReQADgo0bm6sUxUhjGgoLVL/qLKxnBuqNEW221lUNLaFakURrbuIyFgC00OdzfpAsWwjCCOQIWf2wjCPLHNm2hTi5YZKbCbFyVYPyyCEvkBRdckHU4lGMZg7CCpWmswkH/j76MSEyw66672m74JcAXrWc3xAIaZ60iw1ZaRrJuzjFqbQkCxPXAyMdg2Gbz19Ia4y7KX0yklyQ9KG4mdi/j49puRaAXa2qn9ZLAXyiZtjUeCa5ACADxPavaLu53Imx3wr8q/9cL/FGYwPvB92Gh5w+rVJyggwDwH/zgB7W/VUMTAMxvEskLH/ovfvGLQcsSI77mmms6blbsn8dxJhcUv2xhABACuJn47mURTBd+mkSAp/nTZrVLK//JT37SzFRUNM93Wj9pZfgDw/Dy8kEzh6aJ60bTZC/IuB0CCO4uLMi4zyQ/SkV+W0zXUOxaE/cxjG3Gaw815ycvPuPfeOONW4bDve5GAGjprAc7d999d5s/cLJb8zFFE8yXVJOE+xl/CAH8QdzHumsdkjh0s49VxwdRd2Tik+cwYZjyTgIADOB9993nfNB2yx8CB5rC+NdiPyjDgkVWqyzXHs5NFjHLTMF+HjGPitbNyo5G/2QmgrnJojyGHoYoJtyp8urHdcd1G4GROC5SqNq7in2IbwOQfYk6xHzh9x8fow7rF0KTLH2gkU9V19Sy66Upl7hvWWRWfbvn1KvaLuscdSkvi39V/q8X+PMcwg/Ba/CHhYdnl/eYT0oTUr7XOvNPNOmGJgCYphozEcw/CylSFwsoJndMPeRpxT+fj3TERLAVCyxMLi9fXsIs6FgDttxyy3BTyXmfJLTI3HA0cjCU3byQzzzzTGdp9dDM8/GQXhJ+6wT/xcSHK7773e+muvkwFgQDXIT4RgLjQ7iCSGuG4GPav7TA6vg8g9xGwIP4SinCAMG0PJxmYu/VWLh2My2X6ZOFO81FhNSuaX79aX2juWVuFyHlCy+C0ht10u6NHUXDQ45p/D5nn312Kw6/8aIOY59HCPdVBHxTVORZAA488MC+WKbwSc8iUhmz0FUhNN2xciErlV6Vvke1DYGgEIoYLNZ8ORSmAWsy6xWuV9TB9QdtPznKcRfCks06h/CYx2iO6nUPelzdrKll1stYkMtLF278gSXzqNpu0DgO43xl8Gd8Vfi/XuOPkjGpaOyEHWnZef8Zb9Wp/qgfH5oAYG4oSIK4+sDsm+YE0Hwqy/BxFUxFMIkwsEbkZ40JVyDcSGgD00y+Zpj9PfbYo1kNzRnHIQJ6qjLsnAtmFQYQphJ3HPzVe00EHvNVYl4+aOxZVLBc4LPIpOVjYATZGMEwY/lgLFwrGj4CnPBPRvOPwGRBbElmyPoY9C9WDXPfIDsSi+l+++0X7hvX20vfaQTNToxe2vXbYp88RgYmgkt7TXFmp173PdH622effYIiAUEtfn+Ag2mSeIbi904vMTJXxTwhBSbRMoz08tz96qvIF1L7de5h9YuCineoKVCwROJihfUDjT+CAfuWiIH3M8yjMTn4EkO8g7v5Kvmwrr/f5+3FmlpmvfTpJ5uXBFPZiez5rdquU/91OF4Gf663Cv/Xa/zhCcrGPZnStzZWev9SayF/b1r2+7XjfVlxRm1483jDvzjbTuMfzIb3cw91fLBG2/G0AvL0e6Y5tOH7Akb+Rje8RiaUk+Pav3DsUPjdc889w7G07wDEFf0iEPK3M27+/Iu9QS7bonTssceGdt5VqWiTZj3PbIbc33Zuzyg3j8Ub3/nOd0LOeavHrxcEGj7oJeSfZ59x9Js4Tx6RL9u+AeGZ/1DVM0zNsXsBq6U5+bfps+x3ALw1IeRJ90xW268XOEKffmFuO2b1vfa4ZRzaGSwCneZR3mi8YiHcXy8AtFXzAZrhGN/H6Bf5L8SGc3gNceFTeOG84V1GSv/RrhN5gTqMJ+19m9fWuyGGdtyLifgdAO8n3rx+MKj657XNeTBPyGPdrqlZoHVaL+3d7xVpWV00dtppp3CvvXKtWadqu2YHJTa6efeVOE1fqnbCvyr/10v8vbt45WdZ3wHws7MbQhsNYVJNM0cT0Iu2Cb923EKKENo8tPO45CDZof1Geifgw7Ln4A5AzvyYiEiHkAgtAhyTf2y6x7JA1DjuRn4SBlecQQaV4iKFrzPuJJhK0WpaJqP4Wrww43bffXeHjzq4YZ42jT9pzaBR0DhijcGMzljsOkjr6l+6IQaA3Prc/27zZ2OWN3/DGCe2ucekZmV+eMEiebjwPiZ+y05QuNH/V2TOljVDlj2H6rcjYNr5fvqv2znMl7h9FO0luJXE8QntNVpL0Iqhhe4Ux9DaSntlEDj44IObFiOyh+AGhZsl6wXpAvk+Cy4/uJthwSRBA/FoWKKpR9YRiHe46A0E+rmmdloveSaJqYldAd8Y2etbZiWMLYRV2yX7rvt+J/yr8n+9xJ/kG2VdjeEVzbWzDvdwaC5AxpTGTHYSUPPPK+O7bdl4WBhh+nGDQYgwwuc2izDhWuYMTFp2fl7yxCLwwiBrAFk7hvWBCPL8IwCQjg4Gw/wU42tCeCJegD8jGFTwgOG07Cd2bNC/MPe4aOFLh99/fA0IA8R8ELcA5rgI5WVqGPTY085HPAlZi6oQbk4SAKog110bMoERpFvEBaDqmUwAKOP/nceQpI0DRUeVVLVe7Rc+HMj1WxpTBA/GzBgw0YOP/+J22mknVFmczpn4KQQAAnt5nyJ4kUqQ9yquLASlg60JlptsskkIBJ9QgBW42EGtqVnrJfePZ8fcttKGbGmoEe6Mqraz9hPtNwv/qvxfL/HHZTovYUzavcJd3RTGacfHrWxoAoBp/fGtJP1SWqYMHlAoL6NFEnB7oOnPAjVI9ZmnVUNAQBuNpL/ssssG33MLlGWBZJLA/CMxorXAAjAsYnExKpL21Orax7DAIi9A0Or36xeNuwlhxFGAd0wwxAgFpIHF19a7UTStMnG9UdrGSlE0yNfGjf/wpZdearv6HTACMGyd3ivGGFcdGhphCCbRhAHbN7/iUCH6h994GaEky7oVddm2aUqStgMpBTC/eRmDUprUusi+CIyFFQaRGCHmEsT7mH2SUZhFZplllqk1HlUubpBratZ6STY94guz3sE8u8ShQauuumrzMqu2a3YwwTay8K/K//USf2IqyzLzZhWqy20cmgCAmw5BegS54pKD605MaKEwoULc9CKEBsZyYcOs20v4pz/9aW5zzk12Hb5HgIk3ppN8UC3aCgJI0fz3m/nHnG8LSjwO24Y5hohGLzoWMlRY6tDddtvNuhrKL/ednOq4/my77bapY8AViLRiZ599diXNOg9pEU2qZXeAOYvzfKcOyheifUjT5sIkxVrCrPZxeVXNbdzHRN7GCtbp+x0WhMkzzPdFihAuY2htIdzRunENs/PRR9wPQaGkPk4jrF24AfWDYOTJoIaQDbPKL+8arLD2h+meYFVM7WjpsIJST/Q6AgiNvAeMcWDNiIngwDvuuCMwj1g2ywhbcT913q66pqIoxO2KzH8mlFZdL7fbbjtHylGUTFiZV1555RbIOYYXAfc7FgCqtmvpvEY7VfGvyv/1En8s94ceemiN7kb5SxmaAID7BwstGl7yvvOgGRMF88Y2jBymVPzajXgBkDGGTD6x9hiJHZ9u+zQ7mRt6QaYF4EWOhSAv8wtCQhmtfNr4+I4BGiQ09vHiwnkxNRsjT7rIJPHSwp2EBRxC+oaRJlYBNyriH5IvumQf/d5HaMnSusTnRugrKvjF7dgGw6IpOqmPQFLkQ09K0Qlao0G4iBW9x2QIiz82l3cFaCdNAMCCWMW9Jq9/jpllMq8ebnpZVoK0dmkW1GQ9s6gmyzvtFxGmO/VRp+O4f9r3EJLvKPZPO+20cLmm5azTtffiWqquqaTwxhqPYGrCfdX1ElcOlGh8hwNmlMx5Jqzh4mVxaZ/5zGdaLrlqu5ZOarRTFf+q/F8/8CdmJxbyityeYbtRFxljkTpDEwAY3Fe/+tXgUoPGhEBMtF9oWGGA0cqilUIzj8bFCFcemGD+8O+f7IOtcM8h4JVfiJcE3wPoBZlm+LbbbuuoccfSYMxD1XPDtPMJeV5O5NiGAeGacVEyNwI+LmSxCvF5dtlll2BJ4UUG8wCOZrLiwxadvjga9zXO2wiT3QYPp10//YpGAwGEMdzEek3xi524jqqxHd2OC4GU95to9BCAyTcBIDkHYVCM4hgsK9Ova1pby66pJsSvttpqTRi7WS/5IB5ftibNNkwga66ttZyA1K4o3ZJUtV2ynzrsd4N/Ff4PzHqNP8+seY7U4Z6UuYahCgCYl3moN9988/ABFbKpGPFAYjbnozUx4R7CS5eXBxqtWKuF/yUZGzbccMO4Scdt09rHn7i3RmUCkDuZyu089mvniH8JmiHOAP9E4iP4MwITGBKzlFi5/eL2RDyDfWab8aCFwu8fi0La9VnbOv1iHeJPVF8E+F5Cnb+ZwIcMi1gK4jvM+y8WYOJj2u4dAsb0836NGX7OwD7vd9xR+6GE6N1VDK+nqmuqufHFSRO6WS+5P1ij0fLzJXZcfSG8DkgSgHdC2lpdtd3wEO/fmbvBvwr/x5X0Gn+sSXyHqgzhOhkLomXajlLdSV6CeyOq1I+Ml1qiaCDjxZeMTDWkWOIlahl4sk6OKxABv2jFeWDxvYyzyWS1G5dy0o1i1SDbD1kIcAdC+OlE4IhFBZcoAtbSfNY79dGL472eRzB7CEYIhWh/DzjggGCm5UV93nnn9WLIA+3DYgDACWZBlI5Ar+dR+llGp5TkA1VjALbYYou+fGgKFyB7HxO8jvl+3GiizaNxuz+dxss6jycA85A1McmYV10v7bz0z/oy2XsUxK63djzrt2q7rP7i8nGas93iX5b/M5y6wZ8Y1KoxAMSX5iWWsfGNwm/ePBqqBSAGB4kqqe2Pjye38QO0VFLJY3XYJ94gzj9c9JrAkdz/dSPiGIhfUFaNut1ZXU+MAK6QZB+qQlW/bl7lXGojBAaJAAH/KEpw2Uky/4yj6npp14DykG82lKWq7cqeZ9Trd4t/Wf7P8OgGf//R2ODmZX2V+c1LX1+mn2HXHRkLwLCB0Pl7i0Ce1NmLM6FxIIMDbhLj6CtNsCnfOyCjRR0Ftl7cY/ro9zzq1Tjr3A8WYUuuYGkwx+16NY/G7Y61jpekHkcffbTDNQ6X1olAmrMT4S73/xrz5pEEgP7jPyHPkDfpJiQguuhKCGgeVYJNjRIIaB4lABmzXQRQvrtAko2JEsumOTtmk3REh5s3jyQAjOhNG/dh5U26cb82jX9wCGgeDQ7rOp9J86jOd7ee16Y5W8/7OuiryptHUwx6MDqfEBACQkAICAEhIASEgBAQAsNDQALA8LDXmYWAEBACQkAICAEhIASEwMARkAAwcMh1QiEgBISAEBACQkAICAEhMDwEJAAMD3udWQgIASEgBISAEBACQkAIDBwBCQADh1wnFAJCQAgIASEgBISAEBACw0NAAsDwsNeZhYAQEAJCQAgIASEgBITAwBGQADBwyHVCISAEhIAQEAJCQAgIASEwPAQkAAwPe51ZCAgBISAEhIAQEAJCQAgMHIHUD4ENfBQ6oRAQAkJACAgBISAEhIAQEAI9RaDRaKT2N2VaaVbltLoqEwJpCOR9fS6tvsqEQBoCmkdpqKisLAKaR2URU/1hI6A5O+w7UI/zM4+ySC5AWcioXAgIASEgBISAEBACQkAI1BABCQA1vKm6JCEgBISAEBACQkAICAEhkIWABIAsZFQuBISAEBACQkAICAEhIARqiIAEgBreVF2SEBACQkAICAEhIASEgBDIQkACQBYyKhcCQkAICAEhIASEgBAQAjVEQAJADW+qLkkICAEhIASEgBAQAkJACGQhIAEgCxmVCwEhIASEgBAQAkJACAiBGiIgAaCGN1WXJASEgBAQAkJACAgBISAEshCQAJCFjMpHBoGXX37Z3XHHHe6+++5rjumoo45y66+/vjvrrLOaZeO4UfU6Dj744HD9F110UcfL3nnnnUNdMBQJASEgBISAEKgbAs8884y7/fbb3fPPP9/x0nbfffewJt5www0d69a5ggSAOt/dMbm2c845x33mM59xZ555ZuqIb7vtNrf44ou7FVdcsXn82muvdeedd57j2KgQ41lttdXc/PPP76aZZho366yzumWWWcbxsnnuuedSh1n1Oq688spw/XfddVdqv3HhxRdfHOo+/PDDcbG2hYAQEAJCQAiMLQIw/VtvvXVYa2eeeWa3xBJLuOmnn97NPvvsbs8993QvvfRS6rXZmnj//fenHp8ohVNOlAvVdY4uAtdff7079dRT3bTTTus22WSTng/0mGOOcc8++2zpfmeccUa3ww47dGz34osvujXWWMNdc801zbpcC+d88skn3S233BKu78QTT3Rrrrlms442hIAQEAJCQAgIgfIIoPz7xCc+4Z566ik3xRRTuHnnndfNNNNMYf+hhx5yhx12mDv77LMdSrY555yz/AkmQIuREgBee+01d8ghh7hHH33UHXvssbnwv/LKKw7zDW4NSHGzzTabW2SRRQIjxmQoQzfddJNDkkRjiwTZiZ5++ml3xRVXONohdS622GJuySWXDO3z2g7i+h577DF3ySWXOLS9aJ3nnntut9xyy7nll18+b2i1PmZzquxFzjHHHIUEAIQWmH80D7vttpvbaaedwouIOXr11Ve7fffd1/3ud79zW265ZZiz8803X+Gh3HnnnaFtssHjjz8eihAuTjjhhOTh8Bwwn+tM9tzG1zj11FM78OXeTZo0KT7U3E5rN+WUU4ZnZZ555gmLSbOyNoSAR4DnF2Eeix7v/Jh45/KcMncWWGCB+JB74oknglvCXHPN5RZaaKGWYxN9pxdr+KWXXupeffXVQlDCI2BJThLjuPnmmx1WVZQ5K6ywgltppZWCFTdZN96v2i7uY6Jud3vfuE+suzD/iy66qDv++OPdUkst1YTz8ssvd9ttt5178MEH3aabbhqEgLJ8YbOzOm80EuSvNVEymF3v391YeumlG5x/8uTJuSe97rrrGgsuuGCoS/34zwsBDf8w57aPDz7yyCMNr60NfayyyirxobZtvwA0/ALQ8IxFyzk5vxcC2urHBYO4vq222qox1VRTtY2N8a266qoNxj8o4pxFiXFTf7PNNktt4gW9cHyWWWZpHt9ggw1C2d57790sy9rwzGCou/HGGzf222+/wn+HH354VpfNci98hr4Zv3dlapbHG/5l1Zyv3qIQH2p0uo699tqr2T/nKPp34YUXNs/jGZPQ7oILLmiWjcsG15tF9r5Iw2S66f6vvTOB32wq4/gpFEqNFooWSYUmSwvJ1BCGyDJkWkbUZI2MpITEGEuGsoxRhmpG9qHFWqikspRkF5IWlUqZKYVSb+d75vO8c9/73v3/bvd9f8/n8y733HPOPed3zz33POt5XsOrhhPHfFa5FVdcsXHYYYc1vOo47bJKryECWeOoSHe8pDE8Q16b2Jb90EMPDee8T1LbuaOOOiqcmzZtWtu5UU7oxDvcL/wDtknPf1LaFlts0Qa5lyI3vKCkrR4vzGlcc801bfktoWo5K1/kd6xjtsg1+pGnE/dt/vz54Z55iX+DNVwSeeFwY/nllw/5rr766pYsa665Zkg/++yzW9KH8SBrHPVdA3DTTTe5k046yV1++eWp9lq+A03CwWOTTTZxTz/9tFt55ZXdRhtt5MaPH+/uu+8+5xc9DpvoHXbYwd1xxx1BCtssmPLn8MMPd48//njK2SXJDz/8sNtss83c/fffHyQDSBKQBvnBF0w8luRs/dfL/t1www1B6rnVVlsFbQgSUD/ROtL9A+CmTJkSpBxpktHWlvfuCHUdZL/hoAtfntEINvqdrNqccNG04JScRH4SCtL/gw8+OFGan1TG0iZMmJBovuRfTmHs+cVskIBYfvsto2WwMnX99Yv2oH3xk3fQejFH8EEqdOmll7pbbrklUQWMxsYzCnAYoRxSJbRmxxxzjLvnnnuC30RdMVG7O4sA8z12w0mO9JbGmIkT7yFovfXWi58a2eNOvcN5j6F9z9IAcO7ee+8NWMe1M2hPMd189NFH3aqrrhre78wFzK2PPPJImM9ZU7DeiFLVctE6Rvn/WO8b2KFZh7zQNmh7w0HsyywzMAHinnkGMJZDh23iNQ9Jz5igGTNmtHDeyy23XDjO0gD4F3TIs8ceezR8dJiWtnpb8obVMX369JZzSQd33313i8Q8TQPgmY2GX1CF6yIt8OretuqQ8sap1/1DEuVfQvFmNA455JAmzkheekFlxpFfPIf2eYaugXQgTp3SAHjTqHjVYz6eO3duaDsShSw65ZRTEvPlaQDS6jSJ5NFHH52WpZk+7BoAz1g1+8ofz0g29t5776amzjNRLedNAxAv518STS0k4zdLAthSoQ4GHoEy81FSZ7yDf3h+vSll22lv3hPOoX198sknW857s59wjjlMtBiBTr7D8zD1psQB/3HjxjW8uUhLdi88DOd4/3iz3uY55g/eRYwZbw7UTLc/VctZ+aK/Yx2zRa8ziPmy7hvtnTx5crg/ees8e7/uvvvuLd2UBmAxHOWM5f2I7CSZYyaSfOy0TzzxxNzq/QLfnXvuuc4vvNwyyyzTkh8796lTp4a0vOgwvvvBe5wQk3l03nnnuQceeMAhacS2DJuzOCHljVOv+4fk0ptGxZvhPCPirH1wwoNE+HE89NBDoUnY2KZFAiLDU0895XCk5TMoEW3MtwI/FLQ9SYTvB85IEL4inSA0YKJkBLC3xodor732ChnQgmGLnUfYkKKJxB8AYmyKhAAI4EcFoQGOEhojm4t4l5jEnzzYiGOD7BmDRNvzaD2j9L9T7/A8zMB/1qxZIZsXCDhvQtosgsWAzde836N+HcwfVo4AFWj5jaqWs/L6zUcg675Z6bXXXjv8Ne2Opcd/WbdBfsEfP6Vjj0BfGQDCOhL9hQcM84giTho4+Xlb8dSbZwMDk50sOvnkk8MEgOMWcdKzaPbs2eG05yad1Z+V3871s3/WBn5hlDB3gFZYYYXwOyhfeOpDZpaEOVgaoTr2trThMyiMDOMBMx0W5JgAxRkYzJpIZxHKfbBFaVofi6azsIBsgitabpTyRbHOEwgYLiuttFLTdLCIcMDK6Xe4EcCBdJVVVgnmItEFIQ7lECYkEM7CRl7D7J544ongHMx7S7QYgU69w/PwREiIcIln2mvBW7KfccYZwfQP001j7qIZvITZwaggvDnnnHOap6qWa1agP7kIZN03K8w7FyIYy3XXXRf+x79gZTtptgAAKINJREFU7HDOhwjPLWpHoK8MwI477uh22WWXICFpb1q1FOx4IUI4phGLp5kzZ4bTLO6zJmcmdBabLFC9uimtysT0fvUv3hiYIZOAmsQ6nqcfx2zagcQVYuFM7F7stb3jXGJzmJD333//8BkUG3fGxSWXXBIizxCZh4gDSJOISOVN2UK6d74NY/yEE04IESYSO1cikdjGpjW56667SpQcraws2owsapIdp/0izUUTBcluOw2l0UonKh2SfxtPV1xxRTgm7dprrw1g2FiB0SedD35XENG4OEYYIMpHoMg7PK8WmHeT4h9wwAHB1ydahvcMtPnmm0eTm/8RlJm2NipkqVquWbH+ZCKQd9+sMH6O22+/fRC8sc7i3YrfBsTz6oN9NIVt7BOAn6ioHYHFuu729Nqm4PQHsRlTEiGRgbtHdYtEnziycJFpZJLm1VdfPYRxY/FFfswDiC3LJBENP5VWT6fS8/oXv87ChQvDopR0NBJJJkLxMr04XrRokdt5552DWc+mm24aHJS5N4TKhDnjgeXBjhKx9b0tfUhiQRedmKP5ev0fCRMLcbQX8+bNCxMQxzAHLBoYH8cdd1wp7VFWH2AokExBXIfFRdp4z6pn2M9FzTGKvAAI72vaRRhM5gmREMB5ENMPo6S9QWAKIMxT+USJ8JI4oCIYYIyJshEo+45Lqo29X9DUYPZDaOY44fgLxR2Do/kwBYKhi96zquWi9ep/OgJ59y1aElNg1nCsx3w0wPBBmIupsBHa9zlz5tihfmMIDBUDcOaZZzYj8uyzzz6xri4+JBIMCwPihKNqyiOz70SKc9ZZZwXpMwvVKLG5E4MxakcYPd+p/0X6hzQaDQeTFlJiJFQwAUiobGLtVHuq1oOEhwf3wQcfDOpZsIN22223IDVDdUeMX+Ln47/QKQK/LGYv6TrYjqImziPsfDFj44N/CfizGzCfThJ1e8ffZpVMdj5UaIiA1UzUnxAZxIfzDEiwCEhS8+PPg3QQqRPPOUw9ggGeFdT+RUwSBfXwI8DmQvipEVHGFoAcQ2iL8BkhDz5f2C9Hz5GH98JSSy0VfMg4FqUjUOQdl1568RmeZx/CORxgYbDsssu2FWHfH4j7lkZmRWD3nHxVy6VdQ+lLEChy35bkdk2fzAsvvNDxQSDIM4hADgGODxSjyD9RwBL+Dw0DgAmJ2fJjhsFmHnHC3pyBwmINKQ1OvXmEOgnCjAbzE1SDcJXY1GP/iUoQMxbCibGZSLeoSP+4NhMfYT+jhNMyDtbmBxA91+v/2MWCHxI1bGrZEARJixH3BW0LDs1oAnhxdsp+D+aoLKGdKMIAROtF8s8kBLFA95FBwgfGkZCz+DLwa3aM0bJ5/3384xDWjkUH+GDbetlllwXGhpBoo05syoRzH0yShWf00bGaPiZRfHh2TaUfTcdMjjlCJARAAEdQCIEKcxM7jrLY4HlmTiUUL3l4/pD2Y9qI5g8NMe8PvwdM5kIzVK6vYAaa9w4vAtNFF10UcOcZTpL+Rxm5qGNwvG5bH1gwj6rl4vXqOBmBvPuWXMo5v79P+KSdT0rHRBfhHILdUabaMwCYQiABxfwC6ShmLphhxIm4sSYRZEGQxCDEy3DMggJCQmhRQkzCQzp1HnvssUHzgCQbDUMnqWj/7JqYMLCbMZMWNnG8jNB4YOvIg4LTdTx6kpXtxS+qchb/LKqJt4wTdpxY2PKSRROAas8ceeL5ih5zj2wSL1rG8qWZjjBZ7bvvvmHMMe7sw/1CCsgnL1JP1GHQrpf1y6IDDQPEvURDcp13gIKJQmPC4mMUdxvF/hM1L5hH1b/ghBQIKX8ScW95VrhnSPkwGSCWO2ro888/PwgJMBEUjTYCCH4YGzzjEBpW9pqBiWfMwRhwjCkexLPJ4tGER9ggQ+w54TceCv/1tQSBsu+4JSWT/9nO6Ntss01ijPjovMyiPo9Mg1C1XF79Or8Ygbz7loYTwlnziUvLE083RjPt/R7PP7THflJrId/RluNeHljsV+88WeiyflJueGkds3L4sPOnf0jbyvoB0vASmZCH3QD9hNOS56CDDgrnkvYB8JuAhHPetqzhJ/iWchz4CaS5y6u3WW87H03oVv+i14j/99Lmhl8ohj6AEzvh9oKyxhG77/mXY+FmeNOM0H4vrWmW8SZEIa3ITsDNQh38w86C7DLILtJeCtjw6uIG7WOfCK/yD23zmoCwfwSxwL1ZSWPDDTdseAY17MpMHGN2hy7aD8/ANPei8MxTg/sKefOuhmeWwvW8E3XDL07aejns+wDY82+/XrIT4vnHd380YNL2AeC81541bOdofpP297B69FsfBLLmo7xeeDvx8HzZ+Kr6G52/8q45KueLvsOL4uEdrRteOxrulxeIpBZjzuY+eoFYap799tsv5PEbgDbzVC3XrKDEn7GM2RKXGYisRe9bUmNZA1R9JrUTsEeujoSZC06i2GCihsXExW/2kNgV7M0tCg5mF6eeempLPpPEwkmakyk+BKgQMVOBUP0mRZ7BTnjixInBLAOb9k5Rmf5lXROTJRxQ/QMWVKxw2UjY+0kf/OAHWy5//fXXOz5oWPDurwPhGGjRKuLtJeQkzuFI/EwqGM9T5hjpIw7TaAAY62hGLJwrx0QbwQ8F6TW7UxMBAaklpkijQIwni9AFLjynVfvOzuLsIDxp0qQgwWVc1mVMjsK97kcf0fCa7Tc7w6LFRLrM+wLtJH5KmPz4jabCs0egBS/ECjsHk49oJZA9s/3owyBes1PvuGjfCNOJpB4fv/gOvtF82PcTiCJq3x89z3+751GNf9Vy8bp13IpA0fvWWmrxEaG4PZOWdCo1jTUfvpGjTrU0AWLSxeaeBxgvfqKiZG30EN0s4ogjjki95yzWzFwAUxrsAwlNCWXZBJMPSlsQhpMlvsr2r0jV2267bWAAiJ6Do6PZNxYp2+083/jGNxz7MrCQS1psYe/Ogm4UnTJxPMfsBxMm20An7tCKORV27zAJmAMxhvF3YPE6CgSTbiH7OtFfGHrGm5c2BcY+aUx24jqqox4IRKORsaEiDACOvQiVeCbxw8GsElMWNrRk3JgPEKZ5OKKKWhHoxjsO3DHdg1gfZBH3D7ORLAENmztCMHdGVctZef22I1DmvrWXXhw8hAAiZQhhowl+y5Qbtry1YwCw2eNms/iH80OKgBQ0i7DjJXxnGsEgIF2F0/dmGuHlbzvnmtQfKSz2xUl7Bpj9WZI9e9o109Kr9C+trmg6D5lR3RbSPKy8XKM0ZcqUoJVBEj+sxHjDcZ3FPwwbUauQKCYR0sWrrrrKHXjgge60005zSaEKk8oprR0BmGR7Xgg9KxIChoAx34TfZYGIr5L5VDGvcowmDsYAQiMnakWgW+84hCBouiEYrywi0hchvhGYJBHaHPznILSBRlXLWXn9tiNQ5r61l3bBx7HsYt60O0n1jVJa7RgAHHyRHvBiRvKft/jnZppUIO3G4kSMCREOlKh4o0REIZPAYjpE3iihQmThBTE5jJWq9I9r4oxmL6KkNuC0CuH9XgSzpDoGKQ1pN58kIgLMggULkk6NKY3rYV7TK4LZxLGXxTxRkfL2cEBqjTO8t11NdK7uVbvrfh1ztAZPOQHX/W52tv0IeZAC24Ij7nSPUyHRp1g8wrRrf452/Ku+4xCIYHaFRjgaOc6uwFwJIchDi5dFe+65pyPkKA7dBFKImwtxDlMi7neUAahaLqsto36uzH1LworIgbbpW9J5paUjUDsGwLhyJlYedEIqphFMwlil3YSKQppAZBAWYUwIphJm8c9/uElUvt6ZOK0phdOr9o9oOUieCAMafSmBDypq2wNg2rRphdtS14xIgaKbQHWqH4T76zURpuzrX/96qct2QhNV6oI1zcxza347aBTRBHpH/WbYR8LVmglgTbuoZncBAcxN2SAKigt9OGYPCci0x+FAX00Eqr7jCOGN9p9n0iIsNSv1f+yeIOSCec8itMrku/POO8NGmUQJNGYNEy/zk9t1111bqqlarqUSHbQgUOa+tRSMHSAgizJrsdOJh+uuu25i+qgk1o4BsB0ZcbTMk2Qj+c9TBRa50UceeWQwNUKyg0MxfgdsIMKCG3t6/APQICAZGitV7R8mCziDMqnhAIXTMmZPmDbRRghbVPNxGGs7B7k894JQr50m2xim0/Wqvv4ggH8FnyRCgqiQjUnIKI1Fvi1a4r4nLBCN2H9F1I5A1Xec+TSl7QtjWpn111+//aIJKeypgn8P4bJZPPLutHcm2QntivAsTlXLxevR8WIEyt63NNx49vAlFBVHYKAYAJPW229SN8o42uZJAax+ux6bTiURTr5MPlOnTg0mGWzsYsTEQdQQoofkkV3HfpPyV+0fTr74Q2DXiL8CHyPaiFmMaS4sfdB+sQW0mNll2gaDBtNjNG7cOMdHNNwI2POd9TwlIWDloueowxjnvfbaq/TGMtG69H+4EbBFP+MouuCn1xwzlvBZKroQHW602ntX9R3HTt0Q+yzECU0edvtQUU0t9wcfAKT8bFCJaTGENt+HaQ5a/6S5pWq5ULm+WhCoct9aKogcoBViU9YyhNl0GkNZpp665n2Glxwv8Q71vWBSiyXVtW9daTe29uweSggpJnuLANSVi1WolLCoPFQ4MhK9AHOgfiyGy4wjdmscC+cO44Dz9qCQhQFFQ5UXagy/gosvvjhseHb88cd3pQs4JjIm8JmxkIRduVAXKi0zjrpweVU5JAhoHNX7RqLFRsPO+5Z3W9LCfCw9pH4EaKv58K1RE9q8OquWy6uX8xqzRVBywUezqg8AzvpZAWKKtWCwc2WNo4HSAAw2jItbB8dYRNrfr77gF8GnTkT4zzKTbrxvmGQNEq266qohDr9FkhqktqktQkAICIG6IfC9730vaFUw2en04h8scNhOi7CWhVXVcll16lw5BNjNHXOtKpQV3r1KfXUrIw1A3e5YTdqbxXXWpAs9aSYOy8QTR/IUjTfdyYvjEI3anQgldduMSOOokyNhdOvSOKr3vWdjw9mzZ7srr7xyZCJzaczWe8wOSuuzxpEYgEG5S0PWjqxBN2RdVXe6iIDGURfBHaGqNY7qfbNvvvnmsO8CQT3SfPXq3cP21mvMtmOilPIIZI0jMQDl8VSJAghkDboCxZVFCAQENI40EDqBgMZRJ1BUHb1EQGO2l2gP77WyxtEzh7fb6pkQEAJCQAgIASEgBISAEBACcQTEAMQR0bEQEAJCQAgIASEgBISAEBhiBMQADPHNVdeEgBAQAkJACAgBISAEhEAcATEAcUR0LASEgBAQAkJACAgBISAEhhgBMQBDfHPVNSEgBISAEBACQkAICAEhEEdADEAcER0LASEgBISAEBACQkAICIEhRkAMwBDfXHVNCAgBISAEhIAQEAJCQAjEERADEEdEx0JACAgBISAEhIAQEAJCYIgRSNwIbIj7q64JASEgBISAEBACQkAICIGRQKDRaCT2c+mk1LTMSXmVJgSSEMjafS4pv9KEQBICGkdJqCitLAIaR2URU/5+I6Ax2+87MBzXZxylkUyA0pBRuhAQAkJACAgBISAEhIAQGEIExAAM4U1Vl4SAEBACQkAICAEhIASEQBoCYgDSkFG6EBACQkAICAEhIASEgBAYQgTEAAzhTVWXhIAQEAJCQAgIASEgBIRAGgJiANKQUboQEAJCQAgIASEgBISAEBhCBMQADOFNVZeEgBAQAkJACAgBISAEhEAaAmIA0pBRuhAQAkJACAgBISAEhIAQGEIExAAM4U1Vl4SAEBACQkAICAEhIASEQBoCYgDSkFF6TxD49re/7S644AL36KOPFroe+chPuU7Tk08+6W677Tb3wAMPhKqvu+46t9NOO7mZM2d2+lKqTwh0BIF//etfYYy+5z3vcf/+9787UmdSJU888URPrpN0baUJASEgBIRA5xF4ht/1t2WPYO0+13mQR7HGouNojTXWcA8++GBY0G+55Za5UH3nO99xW221lXv1q1/tfvnLX6bm/8tf/lJ4QbTiiiu65Zdf3l1zzTVu0qRJzbq/9KUvuX322cdNnDjRwQyIeo9A0XHU+5YNxhVhiF/84heHxjz++OPuOc95Tlca9te//tW96EUvCnX//e9/dyussEJXrtOtSjWOuoWs6u0WAhqz3UJ2tOrNGkdLjxYU6u2oILD22msX1ip88pOfdLNmzRoVaIayn5///OcdUuqy9NznPtcdcMABhYp18xof+chH3MMPP+yOPfZY96Y3valQe8pmmj59ukNjUIRghHfeeeciWZVHCAgBISAEaojAQDIAN998s0Pi9JKXvMS98Y1vzIX1f//7n/vc5z7nfve737kvfvGLmfn/85//uBtvvDGYeiBBfulLX+re8IY3uK233to985nlLKKKtvM3v/mN+9GPfuRuv/32IKGbMGGCe9vb3uaWW265trYi4f7vf//blp6UQNvXX3/9pFMtaUXb2VKoxwef+tSn3PHHH597VcZFEVpnnXXcwoULi2R1q622WqF8yjS4CBx99NGF73e0F0i1izIA3bwGGqZf/epXbt999+0aAzB//ny3aNGiaPdT/y+99NJiACLo/OxnP3N/+tOf3AYbbNDUhNjp3//+92FuRyv5ute9zpLD7x//+Ef385//3L3yla90r3/961vO6aCzCJR5z0avzJrgJz/5ifv+97/v/vnPf7q3v/3tQeubp02rWi567br9v+OOO4KgItruTTfdtLmWsbUG51njjBs3Lpq17b89O2CNpj1KV199tXv66afdRhtt5NDSZ9Gtt97qHnnkkaC9jz+D1qa11lrLvepVr8qqJpwrmp/5+he/+EVLfUnzQ0uGQTvABChKvn3Rw57//+1vf9vwUjnMkhrvfOc7c6/vb0DjLW95S8jvF3KZ+f0ivOEHQchL/dGPZwIafhLILB89WaSdfiHfOOKIIxrPfvazW67FdV/+8pc37rzzzmiVDfJH25T3f4sttmgpn3RQpJ1J5caaRtuLkH9pluqzYUK5IsT48Hb9DW/f38zuTY5CmjeZaKbxx084oS1Wt2cmw7GfmFry6aB3CBQdR/5FE+7V+9///oZnJnM/5KNuzwAU7kw3r7H66quH9nzrW98q3B4yelO3UI6+xMdzvKLnP//5Ie+MGTMaX/va1xI/73jHO0Kevffeu6W4NzVqXsebALWcq8NB0XGU1pd3vetdof+nn356W5ZDDz00nPP+Qm3njjrqqHBu2rRpbeeU0BkEyr5no1f1C8eGFzQ2xzbjhA/PijcJjWZt+V+1XEslOQdjHbM51Vc6vd1227Vh5RncZl22FqPtXoPYTE/784UvfCHUt8oqq7Rl8UKIcK7InMhakWvuvvvubfVYmw4++OC2c0kJRfN7y4E2LM4///ykKvualjWOBk4DcPjhhztsWfPopptucieddJK7/PLLC6m1sVvdZJNNAke58sorB65y/Pjx7r777nN+gDm/GHc77LCDg8N94QtfmHd5V6SdqPXnzZsX6oIb3njjjR0cLw6saCvgnJH8mWQIW6111103UwOAduDee+8NdcY53aRGF2lnUrlep/kHx22++ea5l7322mudX7zl5rMMSA8ee+yxoPEBW4jySHy++tWvug996EMhTV/DgcB+++0XJE95vbnhhhscY64K9eIaVdpVtMy73/3uVM0qUtDrr7++aFUjkw9N61VXXRXmkXinCRwA3XPPPfFT4X1C4nrrrdd2TgmdQaDse9au+tOf/jRo/vGjWXXVVd1mm22G1Cr4giFNJgAEawPWDVGqWi5aR93/44e34YYbhm54YWZidxYsWOCuuOIKt8022ySer3si8yi+g9DZZ5/tHnroodp1aaAYACbQIi9lL1VxXrLeBBtTmjz7X8yEUCftsccebs6cOW6ZZZZplmcxwOLzD3/4Q4j4cvLJJzfPJf0p0s4f/vCHYVBQ/rDDDnOYDxjdddddwZEVZuC4445z55xzTjgFA2AvE8sb/zXHVFRrn/3sZ+OnW46LtLOlQB8PUPGZk2FWM/JUgfGySy21VEji3hsxFiDMHERCQAgIgTwE3vzmN4cszN1xuvvuu0MSwQyeeuop5zW+zSwmrPFSxWaa/nQOgSrvWbs6PjEs/jELQSBk7x9MiVjcYvLFOzbOEFctZ9cdhl8Wv5gr5hHCEgSdtlDOy1+n815b6vhACHLryACUM3rv4t2B84aTLxLK7m9/+1toCZJ8bP9PPPHE3JbBJJx77rlu7ty5LYt/CiKdnzp1aqgDW7IsKtrOU0891bHQRPITDyOJ5sEW75dddlmQUGdd085hc2jOql5F34z+Yeejv0XbGS3Tz/9IFGDK8j7kK0O2yAc7I7QoEC9q7g0vZz5FJjSrQ79CQAiMDgJvfetbQ2fvv//+lk6jXWTBCPHuQoNsxJyDnfCznvWsQr5aVk6/xRGo+p5F848VAXTeeec1F/8c469h79kf//jHzpvRkhyoajkrPyq/+FEg0Pz1r3/tvOnNqHS7dv0cGAYAqTsPJI5UH/vYxzKBhOvyNqzhwWRwFXHeZbH3gQ98ILVeosZAROLIoqLttBfFtttuGx6EeJ0wO97O0GGadOWVV8ZPJx7DvMBlrrTSSu6QQw5JzGOJRdtp+fv1622f3Wtf+9rw4b99nve85wWNDb+WFs9bpM1ZDADMBvfplltuCR+L/1+kXuURAkJgdBAg4IK3Uw4S4+iCEIdBCBMSCGdhIzQDaKZ5p0W1AnZev2NHoOp79owzzgjmPkj/jbmLtmby5MnBsRUhnmnoOV+1XLTuUfiPBsXWW2Bmz8ko9L1OfRwIBgApiUnJZ8+enTtZ7rjjjm6XXXYJkpVOgY33P/SCF7wgtcoy7cS8B2KRn0SYpvBCgfKYDvIgXTKpBFFLWBinUZl2ptXRq3Q8/ZGqxD9TpkwJTeA3fo5jyhWhLAYAyRwSJKJB8fnKV75SpErlEQIDiQB7X2DSYJ+BbGQNG4W/FgtNmAAIu2aO+eCTBJmNP9He7JzNUUSzIw1pqKizCFR9zyL0gdL8ztjnwsLxRgVDVct1ttf1qI21HM8MmrA999wz07exHj0avlb2nQFAQgK3jSqV3Sx9tIW+oHzppZeG6yKNTqKy7URKD/HySCOLyW2TWFo+0n30iaDxYNOfj3/846lZy7YztaIhOWEMQJIPAAwAPgVI6Pi87GUvG5JeqxujiADSTOYH+yAIEI0dAR9tLYT3NOn+Rz/60XBMEAb2hoBgCiDMTEnnY6YPOFZzLD+AAFFHv6q+Z2GSIe5LGmEKBMFYG1UtZ+VH6Zd3q4/yE7qMaRx7nIgGC4G+e0F++MMfDnaTeJJj4tIPOvPMMx2e/RA7vyZR2XbCSOAAdtFFF7ljjjmmbYfO7373u03bQiIOZBHSf3uQ0Hwsu+yyqdnLtjO1oi6dQHuBx3weWSSoL3/5y+7CCy/My+523XVXl+S8ncQAGDMAAyAaLgTQ4vBs5ZHZbeflSzrfi2skXTcvDQbAnN7JK7OTPMSKnScqHP5m+A7ZApBjCEdR5hjy4JuGtDN6jjw4l3JfygYwoKwoG4Gq71nbTyYr4p9ZA9g9pyVVy2X3YnjPvu997wtMMdEa8dXk+DWvec3wdrhmPesrA4D0hMUdCzEkJ/2YIC+44IKmzwHhIXFeiVOVduLHgFaBjWAIg8V1UAVDPr6wY6GOoy6U5yEPE4EmAZyypP9V2hka0MMvnLFRr+ZRkTzROqKbqrEZnNlt2kKP3X5hxCDuCcQ9YCdYXuL4ZMTDvYVM+qoVAjCM3aZeXKNKHwhlnLd5UZV6R70MjqAQ/lf4Ia2xxhoOsxC0rZh4Itknj49FHjaTYuMvTB9e8YpXhHmbzYKyFpqjju9Y+l/lPRtl5NCWpZGtRyzoSNVyafWPSjqRCwnBDfNEFMbrfMQc0WAg0DcG4Ac/+EEIjwkMfiOVxIV3NyHCuYdFIXsJsBDHsXjevHltl6zaTmIK77bbbqFO6kCdiITOb0gVJP/Y8OMDQOjRPNMTs02HkUiLuVu1nW0d7nICYU/5dJPwESC0a5SSYnSbiQTOwDhjpxHRDESDjQALARZkcWJnbRbG7Pa95ZZbxk8HBrAtMSWhF9dIubSS+4jA/vvvH+ZsE9gwb7BnDFpKJP4wBhxj5w+9973vDcIsM/9EuAAx5xfRfobM+iqEQJX3rGmAuYBFhMu6mGncq5bLqnsUzuEgTxh0rCtYp2BxASMg6j8CfWEAsHlH2k7MZOwrLSRmr+BgYkYVZYtEJmg81aPqc9oy1nay0RSbfDH4Fy1aFJxZqRdGAHMV+p3HACDBJtYxxIsoicbazqQ6e5XGRisWl7/MNVm0E4s4iY488shCIT3RqKA5QNJDfWhmkshe/EnnlDYYCLA3SBIhvYMBQEp7wgknJGUpnNaLaxRpDHMJ88I666xTJLvyjBEBC1Rg1TBfMW8ZoVGMHtt8beftXJa02fLqtzwCZd+zmMahYeY5yhL8mOTf/Ayqlivfo+ErQdhy9nhiTwX2Rdp+++1DNMMiPS2yPrB3tIR1RRBdkqcvDADOvmaGMWHChBCJZUmTloRSIzrOKaecEk7BPXbCZptFP1GEMPtAfYtdmt8+Onr55v9OtPOggw5yBx54oGMDGTaKYSFiEn8eCghVcRrBmCB5QPKfZqLSiXamXb+b6UjPkJxVIRbu5kQdL88maXyixEQPs8Vi32x0o+f1XwgMAgI4mDJnQBbemBcgH7SHRCtbuHBhOA8TkGc+GDLGvj796U+nRjuzKCexIiN9iPOi2X6zmLfdTXk/3X777W7GjBnB5OfPf/6z+8xnPuPWWmstt9pqq4Wdg9HastiBypo1jjToJTtf9j2LfT8MQNS+P35Ju+fR90XVcvG6R/H4rLPOcmyoh1M189zFF1+cCQPrM+4B7+08MmbNzKzz8uv8YgT6wgDY7og0Ibqjb/ymoFLFaRQipuxYJShM1ltvvXV48PH+/+Y3v+nWXHPN+GWbx51qJy9ypHVRiR0vWpggJM/YxyURXK3tjEy706hT7Uyrv1vpOM/BHBXh8K0NTNhm329pRX4J93n44YcHfwwckkRCYJAQMMlVXkQwFvzYoaNW/8c//lHJ5j9N0zVIeAxSWxAYGYE/DACOvczfCCLYk4V5nHmMjSmZt01qjKaZwA2i7iNQ5j3L/cN0y8y2klpHaGjIwr/yv2o5yo464fyL8AGT70suuST4SGZhgok0DECR8LkWSAXrClFxBPrCABDqM016S9NZ0OJkBefNhhK8HKtIuqIwYOuHTT5cP5t+oQlIi9Fv5brZTovqwzVsExm7rv2yMZoNfl4kadTNdqZdsxPp3FcLo1e0PhzqqjAARepHGwVjZo6UTPYwippUiqCnPGNBgBCTSPghngv7YJbIB2YZE4S4mWKWBDPeHgIRYHZZhNLCIRcpO8x5bNMoNLosEHEIZvEPsQDlGH8jC0qwwQYbDDMcA9+3tPcs+zYQ+Q8foSRCm4MzNzRp0qRmlqrlmhWM+B9C4yL5v/XWW4NJc1rURWDCUgLzzTyBBYJdLDognj9RcQT6wgCYVDutmTjnYpqD/bzZT6blLZo+zzv4MlCI+oLkP2/xT73daicRI2zfgayoPsSPhmCEJk6cGP4nfXWrnUnX6mQaEjPMr4o4Ytl1zfzBjjv5y0vbNn+hXkyr+IgGDwHiSmdJ76zFSPkgfvNUzuRj4Wuaul5cg2tCzEdF5qTFuat9b7XVVtUKqlQTAfYLQTBgewLwjorS+PHj3W233RYWj5gbipGKotPb/1nvWTamwhkVh26i0sTNazmH6S33O8oAVC3X254P7tVgkomiBiONCSOa+TRizXPVVVeF54lokTjXJxE+BRBm0tprIwmh9LS+MADpzeneGePmmZBZUGc5/8AkMFDHSkwiDFrbtRfVMKovFr3Y8iJxjk880WuyqyREBBMkgsNGLPxx4BIJgbII4Btk0bGKlIWZNoY6K/+0adPCC4o8vbhGVlt0bjARwGzU5mbbAdhayrFpKBXv3FDp7m+V9yy26LxXkTATkIToNMasYeI1c+bM0Gj2l4lS1XLROkb9P8/I9OnT3axZszLt+zH/njNnTgilS8hurEIQmJqGnmAuaBBsEz4YAYvYlIQx1h/47SQRwr94qN6y+ZPqHfS0kWEACA0JoXrKk7QhUc8yuSl6UxnkaDOYWBiYqIbNsYjoR2gissikTOuvv35WtqE4R+QMbP6KUtwUomg55RsOBJAgmeNXJ3tkJh7U2YtrdLLtqqs3CLCAMQYgqjHk6iwQjUyTZMf67Q4CVd+z8+fPd2jFsB/HcRuGANNkFpoQASrw74hT1XLxekb5GAYLKwhMetMIk0fCtBOlkcU4PnxETsQ0iM1RzeyH8tttt11uaFH2I+CTRJiaY3IdpbL5o2Xr8n8gGQCTvhdd5Fl++00CH4l7USoqbbfrpbUTXwP8GWyXYepFKoTNPraJaeVoJxGDsEOExqrWymtnuEifv7CzT/OF6GTTmHA+8YlPlK4SR8CNN964dDkV6A4CxJHudizpXlyjO+io1m4iYIt+5vPogp9rcsx8i3njKAhuuolz0bqrvme5P/gAIOW/++67g4kw18SBe/Lkye70009PtASoWq5of+qcz9ZOtuZI6wsRHefOnRs2z8PUysrF8++0007BJJO5mAU6Pky2vwZlVvPRtgj7HdfUROtJqzuaJ9resvmj9dTt/zO8WUoj2mg6H0uKntb/kggQ6hKbUBbzSBTjaqaS1dUme5FxBDYW2pUH2ZzpinaSyaHopmLsxYAEoSoR3QMHJlFvESgyjnrbosG6Gk7AFh2NjalMPd7pVqK5xPYdwnyybiEtNY46PSIGq76xvmcfe+yxEBiE91DcryOrp1XLZdVp5wZxzBLSFsn9aaedVmivHetLJ34xGcaSgw/WAvjbdGu+K9teTLkxI+uU9UjZ62flzxpHA6kByOpM3c6xqB2rBL9ufS7aXrhubO94sIvE+o3XSzzhooTWhUgqVSnqCFa1DpUTAkJACAiBziMw1vcsDtvs2VCWqpYrex3ld8FiAm0PH1FnEKi+IurM9VXLCCOACVRWONhOQoPa3lT3naxXdQmBfiKARvHGG28MTeimNIwNkOw6dZP+9/P+6NpCYBgRIACD7XhNKO9emO8OGo4LFiwIQV1ol/mYDlob89ojBiAPIZ0XAkJACAwoAqh3o47L3Wpmr67TrfarXiEgBDqHAMFU+EA4So8iA8CeQYQnjRLzZJ1IPgB1uls1amuW3VmNuqGm9hkBjaM+34AhubzG0ZDcyBHqxiCOWYKpxAOq4INEW0eN2LgxHk4ek7Cyvozdxi1rHIkB6Db6I1p/1qAbUUjU7QoIaBxVAE1F2hDQOGqDRAkDjoDG7IDfoJo0L2scjX23q5qAoGYKASEgBISAEBACQkAICAEh4JwYAI0CISAEhIAQEAJCQAgIASEwQgiIARihm62uCgEhIASEgBAQAkJACAgBMQAaA0JACAgBISAEhIAQEAJCYIQQEAMwQjdbXRUCQkAICAEhIASEgBAQAmIANAaEgBAQAkJACAgBISAEhMAIISAGYIRutroqBISAEBACQkAICAEhIAQS9wEQLEJACAgBISAEhIAQEAJCQAjUG4FGo5HYgaXjqWkZ4/l0LASEgBAQAkJACAgBISAEhED9EJAJUP3umVosBISAEBACQkAICAEhIAQqIyAGoDJ0KigEhIAQEAJCQAgIASEgBOqHgBiA+t0ztVgICAEhIASEgBAQAkJACFRGQAxAZehUUAgIASEgBISAEBACQkAI1A8BMQD1u2dqsRAQAkJACAgBISAEhIAQqIzA/wEA56WmVfyjpQAAAABJRU5ErkJggg==;" vertex="1" parent="1">
          <mxGeometry x="81" y="340" width="561.33" height="220" as="geometry" />
        </mxCell>
        <mxCell id="eydfWjlNTwk2cM7HVW1J-39" value="레코드 (행, 튜플)" style="text;strokeColor=none;align=center;fillColor=none;html=1;verticalAlign=middle;whiteSpace=wrap;rounded=0;fontStyle=1;fontSize=14;fontColor=#00994D;" vertex="1" parent="1">
          <mxGeometry x="-50" y="460" width="105.7" height="30" as="geometry" />
        </mxCell>
        <mxCell id="eydfWjlNTwk2cM7HVW1J-40" value="컬럼 (열, 속성, 필드)" style="text;strokeColor=none;align=center;fillColor=none;html=1;verticalAlign=middle;whiteSpace=wrap;rounded=0;fontStyle=1;fontSize=14;fontColor=#00994D;" vertex="1" parent="1">
          <mxGeometry x="334.25" y="280" width="131.75" height="30" as="geometry" />
        </mxCell>
        <mxCell id="eydfWjlNTwk2cM7HVW1J-42" style="edgeStyle=orthogonalEdgeStyle;rounded=0;orthogonalLoop=1;jettySize=auto;html=1;endArrow=none;endFill=0;dashed=1;fillColor=#f8cecc;strokeColor=#1A2414;" edge="1" parent="1" source="eydfWjlNTwk2cM7HVW1J-41">
          <mxGeometry relative="1" as="geometry">
            <mxPoint x="510" y="540" as="targetPoint" />
            <Array as="points">
              <mxPoint x="510" y="595" />
              <mxPoint x="510" y="540" />
            </Array>
          </mxGeometry>
        </mxCell>
        <mxCell id="eydfWjlNTwk2cM7HVW1J-41" value="도메인 제약 : 정수값 + 원화 단위" style="text;strokeColor=none;align=center;fillColor=none;html=1;verticalAlign=middle;whiteSpace=wrap;rounded=0;fontStyle=1;fontSize=14;fontColor=#00994D;" vertex="1" parent="1">
          <mxGeometry x="550" y="580" width="184" height="30" as="geometry" />
        </mxCell>
        <mxCell id="eydfWjlNTwk2cM7HVW1J-43" style="edgeStyle=orthogonalEdgeStyle;rounded=0;orthogonalLoop=1;jettySize=auto;html=1;endArrow=none;endFill=0;fillColor=#f8cecc;strokeColor=#1A2414;exitX=0.5;exitY=1;exitDx=0;exitDy=0;" edge="1" parent="1" source="eydfWjlNTwk2cM7HVW1J-40">
          <mxGeometry relative="1" as="geometry">
            <mxPoint x="136" y="350" as="targetPoint" />
            <Array as="points">
              <mxPoint x="400" y="330" />
              <mxPoint x="136" y="330" />
            </Array>
          </mxGeometry>
        </mxCell>
        <mxCell id="eydfWjlNTwk2cM7HVW1J-44" style="edgeStyle=orthogonalEdgeStyle;rounded=0;orthogonalLoop=1;jettySize=auto;html=1;entryX=0.256;entryY=0.045;entryDx=0;entryDy=0;entryPerimeter=0;endArrow=none;endFill=0;fillColor=#f8cecc;strokeColor=#1A2414;exitX=0.5;exitY=1;exitDx=0;exitDy=0;" edge="1" parent="1" source="eydfWjlNTwk2cM7HVW1J-40">
          <mxGeometry relative="1" as="geometry">
            <mxPoint x="240.06079999999974" y="349.89999999999986" as="targetPoint" />
            <Array as="points">
              <mxPoint x="400" y="330" />
              <mxPoint x="240" y="330" />
            </Array>
          </mxGeometry>
        </mxCell>
        <mxCell id="eydfWjlNTwk2cM7HVW1J-45" style="edgeStyle=orthogonalEdgeStyle;rounded=0;orthogonalLoop=1;jettySize=auto;html=1;entryX=0.406;entryY=0.045;entryDx=0;entryDy=0;entryPerimeter=0;endArrow=none;endFill=0;fillColor=#f8cecc;strokeColor=#1A2414;exitX=0.5;exitY=1;exitDx=0;exitDy=0;" edge="1" parent="1" source="eydfWjlNTwk2cM7HVW1J-40">
          <mxGeometry relative="1" as="geometry">
            <mxPoint x="339.70579999999995" y="349.89999999999986" as="targetPoint" />
            <Array as="points">
              <mxPoint x="400" y="330" />
              <mxPoint x="340" y="330" />
            </Array>
          </mxGeometry>
        </mxCell>
        <mxCell id="eydfWjlNTwk2cM7HVW1J-55" value="차수 : 5" style="text;strokeColor=none;align=center;fillColor=none;html=1;verticalAlign=middle;whiteSpace=wrap;rounded=0;fontStyle=5;fontSize=14;fontColor=#007FFF;" vertex="1" parent="1">
          <mxGeometry x="460" y="280" width="52" height="30" as="geometry" />
        </mxCell>
        <mxCell id="eydfWjlNTwk2cM7HVW1J-58" style="edgeStyle=orthogonalEdgeStyle;rounded=0;orthogonalLoop=1;jettySize=auto;html=1;entryX=0.907;entryY=0.045;entryDx=0;entryDy=0;entryPerimeter=0;endArrow=none;endFill=0;fillColor=#f8cecc;strokeColor=#1A2414;" edge="1" parent="1" source="eydfWjlNTwk2cM7HVW1J-40" target="eydfWjlNTwk2cM7HVW1J-56">
          <mxGeometry relative="1" as="geometry" />
        </mxCell>
        <mxCell id="eydfWjlNTwk2cM7HVW1J-59" value="카디널리티 : 5" style="text;strokeColor=none;align=center;fillColor=none;html=1;verticalAlign=middle;whiteSpace=wrap;rounded=0;fontStyle=5;fontSize=14;fontColor=#007FFF;" vertex="1" parent="1">
          <mxGeometry x="-45.309999999999945" y="487" width="90" height="30" as="geometry" />
        </mxCell>
        <mxCell id="eydfWjlNTwk2cM7HVW1J-60" value="기본키" style="text;strokeColor=none;align=center;fillColor=none;html=1;verticalAlign=middle;whiteSpace=wrap;rounded=0;fontStyle=1;fontSize=14;fontColor=#00994D;" vertex="1" parent="1">
          <mxGeometry x="110" y="570" width="60" height="30" as="geometry" />
        </mxCell>
        <mxCell id="eydfWjlNTwk2cM7HVW1J-61" style="edgeStyle=orthogonalEdgeStyle;rounded=0;orthogonalLoop=1;jettySize=auto;html=1;entryX=0.105;entryY=1;entryDx=0;entryDy=0;entryPerimeter=0;endArrow=none;endFill=0;fillColor=#f8cecc;strokeColor=#1A2414;" edge="1" parent="1" source="eydfWjlNTwk2cM7HVW1J-60" target="eydfWjlNTwk2cM7HVW1J-56">
          <mxGeometry relative="1" as="geometry" />
        </mxCell>
        <mxCell id="eydfWjlNTwk2cM7HVW1J-62" style="edgeStyle=orthogonalEdgeStyle;rounded=0;orthogonalLoop=1;jettySize=auto;html=1;exitX=1;exitY=0.5;exitDx=0;exitDy=0;entryX=0.016;entryY=0.318;entryDx=0;entryDy=0;entryPerimeter=0;endArrow=none;endFill=0;fillColor=#f8cecc;strokeColor=#1A2414;" edge="1" parent="1" source="eydfWjlNTwk2cM7HVW1J-39" target="eydfWjlNTwk2cM7HVW1J-56">
          <mxGeometry relative="1" as="geometry">
            <Array as="points">
              <mxPoint x="70" y="475" />
              <mxPoint x="70" y="410" />
            </Array>
          </mxGeometry>
        </mxCell>
        <mxCell id="eydfWjlNTwk2cM7HVW1J-63" style="edgeStyle=orthogonalEdgeStyle;rounded=0;orthogonalLoop=1;jettySize=auto;html=1;entryX=0.016;entryY=0.455;entryDx=0;entryDy=0;entryPerimeter=0;endArrow=none;endFill=0;fillColor=#f8cecc;strokeColor=#1A2414;" edge="1" parent="1" source="eydfWjlNTwk2cM7HVW1J-39" target="eydfWjlNTwk2cM7HVW1J-56">
          <mxGeometry relative="1" as="geometry">
            <Array as="points">
              <mxPoint x="70" y="475" />
              <mxPoint x="70" y="440" />
            </Array>
          </mxGeometry>
        </mxCell>
        <mxCell id="eydfWjlNTwk2cM7HVW1J-64" style="edgeStyle=orthogonalEdgeStyle;rounded=0;orthogonalLoop=1;jettySize=auto;html=1;entryX=0.016;entryY=0.614;entryDx=0;entryDy=0;entryPerimeter=0;endArrow=none;endFill=0;fillColor=#f8cecc;strokeColor=#1A2414;" edge="1" parent="1" source="eydfWjlNTwk2cM7HVW1J-39" target="eydfWjlNTwk2cM7HVW1J-56">
          <mxGeometry relative="1" as="geometry" />
        </mxCell>
        <mxCell id="eydfWjlNTwk2cM7HVW1J-65" style="edgeStyle=orthogonalEdgeStyle;rounded=0;orthogonalLoop=1;jettySize=auto;html=1;entryX=0.027;entryY=0.595;entryDx=0;entryDy=0;entryPerimeter=0;endArrow=none;endFill=0;fillColor=#f8cecc;strokeColor=#1A2414;" edge="1" parent="1" source="eydfWjlNTwk2cM7HVW1J-39">
          <mxGeometry relative="1" as="geometry">
            <mxPoint x="90.25500000000011" y="509.99" as="targetPoint" />
            <Array as="points">
              <mxPoint x="70" y="475" />
              <mxPoint x="70" y="510" />
            </Array>
          </mxGeometry>
        </mxCell>
        <mxCell id="eydfWjlNTwk2cM7HVW1J-66" style="edgeStyle=orthogonalEdgeStyle;rounded=0;orthogonalLoop=1;jettySize=auto;html=1;entryX=0.016;entryY=0.909;entryDx=0;entryDy=0;entryPerimeter=0;endArrow=none;endFill=0;fillColor=#f8cecc;strokeColor=#1A2414;" edge="1" parent="1" source="eydfWjlNTwk2cM7HVW1J-39" target="eydfWjlNTwk2cM7HVW1J-56">
          <mxGeometry relative="1" as="geometry">
            <Array as="points">
              <mxPoint x="70" y="475" />
              <mxPoint x="70" y="540" />
            </Array>
          </mxGeometry>
        </mxCell>
        <mxCell id="eydfWjlNTwk2cM7HVW1J-67" value="" style="shape=curlyBracket;whiteSpace=wrap;html=1;rounded=1;flipH=1;labelPosition=right;verticalLabelPosition=middle;align=left;verticalAlign=middle;" vertex="1" parent="1">
          <mxGeometry x="650" y="392.5" width="20" height="157.5" as="geometry" />
        </mxCell>
        <mxCell id="eydfWjlNTwk2cM7HVW1J-68" value="인스턴스&lt;div&gt;(채워진 값들)&lt;/div&gt;" style="text;strokeColor=none;align=center;fillColor=none;html=1;verticalAlign=middle;whiteSpace=wrap;rounded=0;fontStyle=0;fontSize=14;fontColor=#1A2414;" vertex="1" parent="1">
          <mxGeometry x="660" y="455" width="90" height="30" as="geometry" />
        </mxCell>
        <mxCell id="eydfWjlNTwk2cM7HVW1J-70" value="상품 릴레이션" style="rounded=0;whiteSpace=wrap;html=1;fillColor=#f5f5f5;fontColor=#333333;strokeColor=#666666;fontStyle=1" vertex="1" parent="1">
          <mxGeometry x="278.75" y="230" width="132.5" height="30" as="geometry" />
        </mxCell>
        <mxCell id="eydfWjlNTwk2cM7HVW1J-71" style="edgeStyle=orthogonalEdgeStyle;rounded=0;orthogonalLoop=1;jettySize=auto;html=1;entryX=0.693;entryY=0.045;entryDx=0;entryDy=0;entryPerimeter=0;fillColor=#f8cecc;strokeColor=#1A2414;endArrow=none;endFill=0;" edge="1" parent="1" source="eydfWjlNTwk2cM7HVW1J-40" target="eydfWjlNTwk2cM7HVW1J-56">
          <mxGeometry relative="1" as="geometry" />
        </mxCell>
        <mxCell id="eydfWjlNTwk2cM7HVW1J-72" value="" style="rounded=0;whiteSpace=wrap;html=1;fillColor=#FF3333;strokeColor=#FF3333;fontStyle=1;dashed=1;strokeWidth=2;opacity=20;" vertex="1" parent="1">
          <mxGeometry x="402" y="485" width="130" height="42" as="geometry" />
        </mxCell>
        <mxCell id="eydfWjlNTwk2cM7HVW1J-75" style="edgeStyle=orthogonalEdgeStyle;rounded=0;orthogonalLoop=1;jettySize=auto;html=1;entryX=0.5;entryY=1;entryDx=0;entryDy=0;fillColor=#f8cecc;strokeColor=#b85450;endArrow=none;endFill=0;strokeWidth=2;dashed=1;" edge="1" parent="1" source="eydfWjlNTwk2cM7HVW1J-73" target="eydfWjlNTwk2cM7HVW1J-72">
          <mxGeometry relative="1" as="geometry">
            <Array as="points">
              <mxPoint x="430" y="550" />
              <mxPoint x="467" y="550" />
            </Array>
          </mxGeometry>
        </mxCell>
        <mxCell id="eydfWjlNTwk2cM7HVW1J-73" value="1246123 상품의 판매가는 2,700 원" style="text;strokeColor=none;align=center;fillColor=none;html=1;verticalAlign=middle;whiteSpace=wrap;rounded=0;fontStyle=1;fontSize=14;fontColor=#FF3333;" vertex="1" parent="1">
          <mxGeometry x="250" y="580" width="210" height="30" as="geometry" />
        </mxCell>
      </root>
    </mxGraphModel>
  </diagram>
</mxfile>
